<?xml version="1.0" encoding="UTF-8"?>
<svg viewBox="0 0 92.421356 187.7588" xmlns="http://www.w3.org/2000/svg">
 <defs>
  <linearGradient id="a" x1="197.38" x2="304.94" y1="500.42" y2="518.84" gradientTransform="matrix(1.2246 0 0 1 -183.26 -620.31)" gradientUnits="userSpaceOnUse">
   <stop offset="0"/>
   <stop stop-opacity="0" offset="1"/>
  </linearGradient>
 </defs>
 <g transform="translate(-61.239 280.92)">
  <path d="m111.96-109.6c18.92-0.95673-20.223 3.9073-22.609 4.2426-12.098 0.97493 25.605-2.0201 38.701-3.0373 27.524-1.4611-36.936 5.02-40.591 5.5816 1.1135-3.1136 50.453-8.9851 37.123-3.784-21.053 7.1103-17.228 4.9317 3.0499 3.4211 33.334-1.8947-7.2492 3.6567-18.704 5.4335-6.3313-2.0254 58.388-9.5542 28.563-3.2312-1.8433 1.6942-11.56 2.6047 2.5056 0.23081 1.8624-0.31433-3.6781 0.74906-5.4687 1.2132-6.0456 1.567-6.3527 1.9892 0.031 2.6185 6.3589 0.46827 12.735 0.8133 19.104 1.2157l-9.1822 2.5372c-6.4385-0.45518-12.894-0.77239-19.339-1.1824-18.014-1.6894 18.702-10.975 22.932-8.1286-8.2779 1.809-54.297 7.0647-29.766 1.9021 28.645-3.6075 19.988-0.85571 0.38706 0.0141-19.806 1.6484-27.486 2.2494-4.3074-5.089 9.6104-3.0746-46.83 6.7803-17.348-0.058 12.238-1.4871 64.638-6.8722 22.227-0.1219-15.1 1.0589-69.075 5.8169-21.1-2.1852 22.062-3.034 28.195-1.8277 3.763 1.0611l10.027-2.6537z" fill="url(#a)"/>
  <path d="m129.54-235.25c-0.74061 4.3145 1.3875 1.4598 0 0z" fill="none" stroke="#000"/>
  <path d="m120.37-257.83c-3.1107 3.6341 0.3435 2.3929 0 0z" fill="none" stroke="#000"/>
  <path d="m119.32-260.48c-4.1754 0.57658-1.5811 1.5954 0 0z" fill="none" stroke="#000"/>
  <path d="m123.96-240.19c-2.5531 4.3303 1.1397 2.3775 0 0z" fill="none" stroke="#000"/>
  <path d="m128.26-254.9c0.26519 4.5114 2.3502 1.5964 0 0z" fill="none" stroke="#000"/>
  <path d="m99.293-239.68c-15.608-0.97839-31.285-4.8814-37.104-1.0787 15.376 28.145 18.681 25.045 17.64 36.313" fill="none" stroke="#000" stroke-width="1.9"/>
  <path d="m94.149-195.75c6.0523-3.7952 17.866-5.0866 32.783-16.549-5.9627-14.122-25.602-27.079-25.602-27.079" fill="none" stroke="#000" stroke-width="1.9"/>
  <path d="m78.835-176.85c3.5767 67.984-6.1701 61.924-5.665 63.439s1.0102 3.5355 1.0102 3.5355" fill="none" stroke="#000" stroke-width="1.9"/>
  <path d="m72.665-112.91c-2.444 2.4847-8.1626 2.4836-5.5558 4.0406 5.3668 3.2055 4.9739 6.7943 8.5863 3.0305 3.9322-4.0971 13.132-0.50508-3.0305-7.0711z" fill-rule="evenodd" stroke="#000"/>
  <g transform="matrix(.99692 -.2116 .21359 .98763 17.693 -308.19)" stroke="#000">
   <path d="m33.628 141.93c11.69 30.184-1.8496 59.663-1.4093 62.275 0.2655 1.575 13.208 1.4878 13.208 1.4878" fill="none" stroke-width="1.8723"/>
   <path d="m37.184 202.04c-2.444 2.4847-5.6626 1.0551-3.0558 2.612 5.3668 3.2055 12.831 6.08 16.443 2.3162 3.9322-4.0971 2.7748 1.6378-13.388-4.9282z" fill-rule="evenodd" stroke-width=".98543"/>
  </g>
  <path d="m91.503-192.94c1.4357-1.3397 2.9004-5.3853 3.5597-2.1276 1.2931 6.3899 3.8441 8.7012-1.4152 9.3037-5.7249 0.6559-11.721 9.9976-2.1445-7.1761z" fill-rule="evenodd" stroke="#000"/>
  <path d="m80.408-200.88c0.33062-0.56875 0.66348-6.7615-1.258-4.6211-4.3552 4.8514-8.0466 5.3099-4.251 9 4.1316 4.0168 2.5985 15.068 5.5091-4.3789z" fill-rule="evenodd" stroke="#000"/>
  <path d="m103.21-244.29c-0.30734 2.4398-1.9497 3.0284-3.871 5.6406-12.008 16.326-24.001 64.093-19.2 63.189 7.3852-1.3909 10.211-49.44 19.285-63.155 1.1449-1.7304 3.0778-4.3357 3.7857-5.6744z" fill="none" stroke="#000" stroke-width="3"/>
  <g transform="matrix(.67503 .73779 -.82322 .58165 131.29 -321.19)" fill="none" stroke="#000">
   <path transform="matrix(1.0693 -.18627 .15316 .9894 -497.38 -244.48)" d="m444.03 362.03c5.1653-9.4742 13.303-9.0126 18.175 1.0312s4.635 25.866-0.53031 35.34-13.303 9.0126-18.175-1.0312c-4.8278-9.9517-4.6452-25.601 0.40978-35.116" stroke-linecap="round" stroke-width="2.3534"/>
   <path transform="matrix(.96157 -.27458 .27458 .96157 -345.5 -234.45)" d="m293.26 368.63c1.4348-1.7595 3.6952-1.6738 5.0486 0.1915s1.2875 4.8037-0.14731 6.5632-3.6952 1.6738-5.0486-0.1915c-1.3411-1.8482-1.2903-4.7544 0.11383-6.5216" stroke-linecap="round" stroke-width="2.075"/>
   <path transform="matrix(.96157 -.27458 .27458 .96157 -334.3 -237.64)" d="m293.26 368.63c1.4348-1.7595 3.6952-1.6738 5.0486 0.1915s1.2875 4.8037-0.14731 6.5632-3.6952 1.6738-5.0486-0.1915c-1.3411-1.8482-1.2903-4.7544 0.11383-6.5216" stroke-linecap="round" stroke-width="2.075"/>
   <path d="m53.876 62.506c-1.8518-6.0476-10.418-0.62045-12.514 1.7006" stroke-width="1.25"/>
  </g>
  <path d="m133.38-243.84c3.4236 2.95-0.15858 2.8367 0 0z" fill="none" stroke="#000"/>
 </g>
</svg>
