<svg id="Layer_1" data-name="Layer 1" xmlns="http://www.w3.org/2000/svg" viewBox="0 0 833.33 708"><circle cx="189.3" cy="632.04" r="58.19"/><circle cx="582.93" cy="615.78" r="74.44"/><rect x="82.52" y="501.04" width="549.93" height="30.81"/><rect x="630.8" y="44.89" width="37.15" height="461.63" transform="translate(20.22 -43.46) rotate(3.89)"/><circle cx="82.52" cy="516.44" r="15.41"/><ellipse cx="634.81" cy="510.96" rx="17.78" ry="20.89"/><rect x="21.51" y="101.38" width="630.73" height="30.81" transform="translate(-11.93 42.89) rotate(-7.16)"/><rect x="673.48" y="54.05" width="113.63" height="30.81" transform="translate(1.28 151.24) rotate(-11.83)"/><circle cx="791.18" cy="56.7" r="16.52"/><circle cx="664.99" cy="46.26" r="18.64"/><rect x="-81.46" y="280.99" width="295.66" height="30.81" transform="translate(345.12 175.74) rotate(79.22)"/><rect x="77.78" y="414.81" width="549.93" height="30.81"/><rect x="22.51" y="270.63" width="295.66" height="30.81" transform="translate(443.34 95.5) rotate(85.86)"/><rect x="177.69" y="259.4" width="295.66" height="30.81" transform="translate(581.42 -65.78) rotate(86.75)"/><rect x="359.93" y="243.95" width="316.86" height="30.81" transform="translate(769.54 -263.02) rotate(89.1)"/><rect x="72.44" y="268.7" width="565.93" height="30.81"/></svg>