<svg id="Layer_1" data-name="Layer 1" xmlns="http://www.w3.org/2000/svg" viewBox="0 0 1000 1000"><path d="M247.53,19.51a6.67,6.67,0,0,1,4.34.19,16,16,0,0,0,4.21,2.71,5.83,5.83,0,0,0,2.89-.25,2.32,2.32,0,0,0,1.21-.6c.6-.24,1.08.24,1.62.48,1.39.3,2.71,1,4,1.39.36.12.72.24,1.14.36a8.72,8.72,0,0,0,3,.6c2.17.12,4.46-.42,6.51.48a2.53,2.53,0,0,0,2.35,1.45,10.1,10.1,0,0,0,3.79-.36c.84-.3,1.62.18,2.41.42s1.44.84,2.29,1a15.88,15.88,0,0,1,1.92.55,25.35,25.35,0,0,0,5,1.5,8.49,8.49,0,0,1,3.25.42A3.47,3.47,0,0,1,300.1,31a8.45,8.45,0,0,0,2,2,38.84,38.84,0,0,0,4.4,3.14,39.25,39.25,0,0,0,5.05,2.46A32.32,32.32,0,0,0,316.36,40a65,65,0,0,0,7.47,1.32,10.83,10.83,0,0,0,2.47.06c.54.49,1.08,1,1.62,1.45a10.79,10.79,0,0,1,2.53,4,10,10,0,0,0,.85,2.65,2.82,2.82,0,0,0,1.38,1.15c2.35.6,4.7.9,7.05,1.44,1.5.18,2.89.61,4.39.85,5.18,1.14,10.48,1.86,15.6,3.31l2.35.54c.3.12.54.18.84.3a4.13,4.13,0,0,0,1.69.42c.48-.18,1.08-.36,1.32-.9.43-.06.3-.48.3-.78s.07-.73-.3-.85c-.18-.9-1.62-1-1.38-2a5.16,5.16,0,0,0,.24-3c-.06-.37-.42-.91-.06-1.21.9-.9,2-1.68,2.89-2.65a3.46,3.46,0,0,1,1.75.18c1.86.79,3.79,1.45,5.66,2.17s3.37,2.05,5.24,2.59c3.19.78,6.44,1.45,9.63,2.17a5,5,0,0,1,.9.24,2.67,2.67,0,0,0,2.47-.78c.55-.49.79-1.39,1.63-1.51a19.28,19.28,0,0,1,4.16,0,7.07,7.07,0,0,1,2.28,2,7.56,7.56,0,0,0,.24,1.68A2.92,2.92,0,0,0,404,56.31c1,.12,1.93.24,2.83.42s1.57.3,2.41.36a.64.64,0,0,1,.36.12c5.66.12,11.27-.06,16.93.12.9.24,1.86.12,2.77.36,1.2-.06,2.34.25,3.55.25a4.68,4.68,0,0,0,2.11,1.5,6.35,6.35,0,0,1,2.35,1.63,7.11,7.11,0,0,0,2.89,1.38c.66.24,1,.91,1.5,1.39a5.72,5.72,0,0,0,2.53,1.92c.72.18.9,1,1.45,1.39a4,4,0,0,0,1.68.6c.3,0,.6.06.91.06a34.43,34.43,0,0,0,2.52,2.77c1.27,1.51,2.53,3,3.68,4.58a24.14,24.14,0,0,1,2.29,3.13c.9,1.63,1.62,3.37,2.53,5a13,13,0,0,1,.9,2.59c0,.12.06.36.06.42a3.43,3.43,0,0,1,.18,2.77,2.39,2.39,0,0,0,.72,1.93,10.7,10.7,0,0,1,1.15,2.16c.6,1.63.6,3.38,1.08,5l.18,1.09c.12.6.24,1.14.42,1.74a13.91,13.91,0,0,0,.42,1.69c.37,1.93.61,3.85.91,5.84.06,2.47,0,4.94.12,7.35.36,1.92-.12,3.91.24,5.84.24,1,.42,2,.66,3,.3,1.26.54,2.53.84,3.79.67,2.11.19,4.4.37,6.57a11.18,11.18,0,0,0,.84,2.35,4.4,4.4,0,0,1,.24,2,2.82,2.82,0,0,0,1,1.27c1,.66,1.69,1.62,2.77,2a4.26,4.26,0,0,1,1.21.54,3.35,3.35,0,0,0,.18,1.32c.36.66,1.08,1.09,1.38,1.81a3.5,3.5,0,0,0,1.75,1.93,2.7,2.7,0,0,1,1.93,1.56,14.5,14.5,0,0,0,1,3.13c.84,1.33.3,3,.66,4.46a8.68,8.68,0,0,0,1.27,3.61,6.88,6.88,0,0,0,.18,1.09c.18,1.38,0,2.77.06,4.09a3.07,3.07,0,0,1-1,2c-.49.6-.67,1.44-1.21,2.05a7.05,7.05,0,0,1-1.87,1.68,7.54,7.54,0,0,0-1.2.79c-.84.12-1.75-.12-2.59.06a2.16,2.16,0,0,1-2,.3c-.48-.3-1-.06-1.56.06a5.14,5.14,0,0,0-2.11,2.17,6.62,6.62,0,0,0-.42,2.65c0,.84-.24,1.74.24,2.46a2.7,2.7,0,0,0,1.32,1c.79.06,1.57-.06,2.35.06a15.25,15.25,0,0,0,1.75.72c.6.9.9,2,1.56,2.83a8.34,8.34,0,0,1-.6,4.7c-.12.36-.3.72-.42,1.08s-.06.48-.06.72c-.36,1.63.12,3.32-.36,4.94,0,1.81-.3,3.74.3,5.48a2.92,2.92,0,0,0,1.2,1.51,7.58,7.58,0,0,1,1.15.24,11.19,11.19,0,0,1-.12,2.47c-.24.48-.48,1-.78,1.44s-1,.67-1.33,1.09a8.28,8.28,0,0,0-.9,5.48,4.69,4.69,0,0,0,1,2.65,32,32,0,0,1,2.65,3.13l.18.72a14,14,0,0,0,.78,2.71,4.76,4.76,0,0,1,.61,1.39,14.42,14.42,0,0,1-.18,2.22,27.72,27.72,0,0,0,.18,3.86,5.44,5.44,0,0,0-.49,5.18c.06,1.26.91,2.41.73,3.73-.24,1.15-.12,2.29-.42,3.43-.31,1.33.18,2.59.24,3.92,0,1,.6,1.86.36,2.83a14.61,14.61,0,0,0-.24,2.83.71.71,0,0,0-.06.6,5,5,0,0,0,.24.9,29.79,29.79,0,0,1-.06,5.18l.18,1.09c.6,1.44,2.29,1.8,3.37,2.77.36,1.14,1,2.35.3,3.49a6.72,6.72,0,0,1-.3,1.57,2.5,2.5,0,0,0,.24,2.16,29.06,29.06,0,0,0,.12,3.2c.3.78,1.27,1.32,1,2.28a4,4,0,0,0-1.21,1.45,6.78,6.78,0,0,0-.18,1.93c0,1.44,0,2.89.06,4.33.06.48-.24,1-.06,1.51a3.27,3.27,0,0,0,.72,1.44c.79.79,1.33,1.81,2.11,2.65,1.15,1.21,2.05,2.71,3.49,3.62.49.3,1.09.48,1.39,1a9.38,9.38,0,0,0,2.59,3.19,2.55,2.55,0,0,0,2.17.42,4.75,4.75,0,0,1,2.89.12c.54.79.3,1.75.3,2.65-.36,1.87-.06,3.74-.3,5.6-.18.85,0,1.75-.18,2.65s.12,1.93-.37,2.71a6,6,0,0,0-.42,2.71c-.3,1,0,2.05-.3,3-.06.73-.06,1.45-.12,2.17a21.74,21.74,0,0,0-.24,2.83c-.24,1.09,0,2.17-.24,3.25a20.22,20.22,0,0,1-.66,3.2,8.15,8.15,0,0,1-.66,1.68,34.71,34.71,0,0,1-2.84,5.36,12,12,0,0,0-1.26,2.47c-.18.9-1.08,1.33-1.38,2.17a2.26,2.26,0,0,0,1.56,2.89l.72.18c1.27.06,2.89.54,3.26,1.93a5.69,5.69,0,0,0,1.32,2,9,9,0,0,1,1,2.17c.55,1.09.43,2.41.91,3.56.06.18.18.42.24.66a11.7,11.7,0,0,1,0,2.05c-.36,1.44.06,3-.3,4.45-.3,1.09-1.33,1.81-1.57,2.95a1.7,1.7,0,0,1-1.26,1.27c-1.09.18-1.93,1-3,1s-2.29.06-3,1a1.64,1.64,0,0,0-.42,1.45,2.16,2.16,0,0,0,2.11,1.44c1.08.13,2.23-.54,3.25.13.6.42,1.63.42,1.69,1.32a4.33,4.33,0,0,0,.54,1.2,11.61,11.61,0,0,1,1.14,3.44,8.43,8.43,0,0,1,.79,2.71c.12.78.66,1.38.66,2.16a5.94,5.94,0,0,0,.18,1.45,14.61,14.61,0,0,0,.24,2.83,14.61,14.61,0,0,0,.24,2.83,8.66,8.66,0,0,0,.18,1.75c.3,1.2-.18,2.35-.3,3.49a2.51,2.51,0,0,0,.12,2.59c.24.36.6.72.85,1.08.3.61.18,1.33.48,2,.06,1.57.3,3.31-.3,4.82-.18.9-.42,1.87-.55,2.83-.06.06-.12.12-.18.12a1.11,1.11,0,0,0-.12.42,15,15,0,0,1-1.26,2.83,1.31,1.31,0,0,1-.6.54,9.81,9.81,0,0,0-2.65.12,2.87,2.87,0,0,0-1,1.21c-3.43.06-6.68-1-10.05-1.57a38.5,38.5,0,0,0-4.58-.84,37.19,37.19,0,0,0-5.78-.78,7.59,7.59,0,0,0-1.21,1.14v.84a11,11,0,0,0,1,1.21c.12,0,.3.06.42.06,1.75.42,3.61.6,5.36,1a9.31,9.31,0,0,1,1.26.24c1.39.24,2.71.6,4.1.79a52.89,52.89,0,0,1,6.08,1.5,8.26,8.26,0,0,1,2.83,1.14,5.68,5.68,0,0,0,1.69,1c1.68.36,3.37.66,5.06,1.08,1.14.06,1.74-1,2.46-1.62a3.43,3.43,0,0,1,2.47-.85c1.33.49,3.08.49,4,1.69a12.94,12.94,0,0,1,2.11,3c.06.18.12.42.18.6a11.34,11.34,0,0,0,.42,1.33c.6,1.5.24,3.19.3,4.75.24,3.2-1,6.21-1.39,9.4a6.42,6.42,0,0,1-1.14,1.08,4.7,4.7,0,0,0-2,.61c-.36.36-.84.72-.9,1.2h-.18a1.71,1.71,0,0,1,.48.84c.9.85,1,2.17,1.39,3.25a6.81,6.81,0,0,0,.54,1.81,9.3,9.3,0,0,0,.48,1.09,4.85,4.85,0,0,1-.24,3.55,2.7,2.7,0,0,0-.24,1.38,3.8,3.8,0,0,0,1.62,1.63,23.34,23.34,0,0,0,4.16,1,12,12,0,0,0,2.11.12c1.44.18,2.71,1,4.09,1.51.12,0,.36.06.48.06,1.57.72,3.2,1.26,4.7,2.11a23.28,23.28,0,0,1-.06,2.89.92.92,0,0,0-.06,1c-.06,0-.18-.06-.24-.06a3.62,3.62,0,0,0,1.44,2.29v1.14a2.22,2.22,0,0,0-.54,1.51c-.6,2.71-1.08,5.48-1.62,8.25-.36,1.75-.48,3.61-1.39,5.18a11.14,11.14,0,0,0-1.2,2,2.4,2.4,0,0,1-1.39,1.26c-.6.24-1.08.78-1.74.72a7.4,7.4,0,0,0-1.21.12,12.65,12.65,0,0,0-2,.42c-1.26.25-2.59-.06-3.79.19a2.45,2.45,0,0,0-2.23,2.52,2.83,2.83,0,0,0,2.59,2.59,8.61,8.61,0,0,0,2.17.18c2,0,4-.06,6.08,0,1.27.31,2.53.43,3.8.73a4.77,4.77,0,0,1,1.08.84v.66c-.66.18-1,.79-1.63,1.15-1.32.12-2.59.48-3.91.48-.78,0-1.27.66-2,1-2.17.3-4.39,0-6.62.12a1.9,1.9,0,0,1-.3.36c-.12,0-.3.06-.42.06-.73,1.27-.55,2.77-.55,4.16,0,1.57.06,3.19.06,4.76-.06,1.32.3,2.59.18,3.85.12,1.87-.12,3.73.18,5.6a29.37,29.37,0,0,0,.19,3.25c.18,1.15-.12,2.41.18,3.56a26,26,0,0,0,.12-3.74c0,1.09,0,2.17.06,3.25a22.5,22.5,0,0,0-.12,3.5c0,1.74,0,3.49.06,5.18a14.15,14.15,0,0,0,.12,2.28c.12,2.29-.06,4.64.24,7,.06,2.05,0,4.1.12,6.14a18.73,18.73,0,0,1,.12,3.68c0,1.5.06,3,0,4.51a2.2,2.2,0,0,0-.36,2.11,2.54,2.54,0,0,0,1.86,1.33c.67.12.91.78,1.21,1.26.54.84.84,1.81,1.44,2.59a12.41,12.41,0,0,1,1.39,2.89,13.27,13.27,0,0,0,1.44,2.29,34.87,34.87,0,0,0,1.21,4.64c.18.72.78,1.14,1.08,1.74.36.85.67,1.69,1,2.53,0,.12.06.3.06.42.66.91,1.74,1.21,2.59,1.87.42.24.9.42,1.32.66a5.21,5.21,0,0,1,2.17,1.27c.48.54,1.38.48,1.75,1.2a9.68,9.68,0,0,0,.78,2.65,11.42,11.42,0,0,1,.78,2c.24.54.78.78,1.27,1.08h.84c.6-.36,1.26-.72,1.38-1.44a7.91,7.91,0,0,1,1.21-2.23c1-.18,2,.42,3.13.24a7.19,7.19,0,0,1,.72.66h1.39a4.2,4.2,0,0,0,.9-1.14,48.77,48.77,0,0,0,1.39-6.57c.18-.78.3-1.56.42-2.34l.18-.91c.42-1.32.9-2.59,1.32-3.91.12-.3.18-.54.3-.85.55-1.62,1.09-3.19,1.63-4.81.12-.36.3-.73.42-1.09.6-1.26,1.21-2.53,1.75-3.85.78-.12.84.84,1.5,1,.12,1-.48,1.87-.72,2.77-.78,2.35-1.81,4.58-2.65,6.93a53.5,53.5,0,0,0-1.81,5.9,42.71,42.71,0,0,0-1.26,4.76c-.12.66-.72,1.26-.48,1.92.24.37.66.73,1.14.49.79-.49,1-1.51,1.45-2.29,1.86-3.37,3.67-6.81,5.6-10.18h.78a7.56,7.56,0,0,0,1.08-2.71c2.78-9.39,5.55-18.73,8.38-28.12q2-6.87,4.15-13.73a16.78,16.78,0,0,0,1.21-5.12c0-1.57.06-3.19.06-4.76.06-1.74-1.09-3.19-1.69-4.82-.66-1.14-1-2.47-1.87-3.43-1.32-1.38-2.77-2.71-4.09-4.15s-2.35-3-3.5-4.52a7,7,0,0,1-.54-3.13,14,14,0,0,1,3.86.6,9.51,9.51,0,0,1,3.19.66,17.06,17.06,0,0,0,3.85,3.07c6.75,4.76,13.55,9.52,20.3,14.28,4.45,3.31,8.85,6.62,13.31,9.93a5,5,0,0,0,.9.24,2.46,2.46,0,0,0-.66.06c1.56.91,2.89,2.11,4.39,3.14,6.87,5.11,14,9.87,20.9,14.81l21.14,15.18q20,14.8,40,29.5c3,2.17,6.21,4.1,8.86,6.69a10.25,10.25,0,0,1,1.8,2.17,3.2,3.2,0,0,1-.12,1.5c-.24.72-.54,1.39-.78,2.11a2.42,2.42,0,0,1-1.33-.3,8.5,8.5,0,0,0-1.32-.42,9.16,9.16,0,0,1-2-.79c-1.44-.78-3-1.44-4.45-2.29a26.69,26.69,0,0,0-2.53-1.32c-.91-.36-1.93-.48-2.89-.78a5.67,5.67,0,0,0-.85-.18l-.9-.18a14.66,14.66,0,0,0-4.34.06,16.89,16.89,0,0,0-4.27.36c-1.15.36-2.29.48-3.44.84s-2,.42-3.07.84a29,29,0,0,0-8.61,4.58,26.69,26.69,0,0,0-3.91,3.43c-1.57,1.63-2.83,3.56-4.28,5.3-1.2,1.45-2.59,2.77-3.79,4.28-.91,1.26-1.39,2.77-2.47,4h-.84a5.8,5.8,0,0,1-.61.3,26.36,26.36,0,0,0-3.61,4.58c-1,2.17-2,4.28-3,6.44-.54,1.33-1.33,2.53-1.75,3.92-.36,1.08-1.44,1.56-2,2.47a6.43,6.43,0,0,0-.49,3.37c.06.54.55.84,1,1.14-1.15-.18-1.21-1.5-1.21-2.47a2.66,2.66,0,0,0,.55,2.23,3.6,3.6,0,0,0,1.56.55,4.17,4.17,0,0,0,1.51.12c-.18.78-.85,1.26-1.09,2a13.86,13.86,0,0,0-1.08,3.38c-.06.24-.12.54-.18.84a16.41,16.41,0,0,0-1.69,2.83c-.36.66-.48,1.56-1.08,2-1.21.78-1.81,2.1-2.83,3.07a7.39,7.39,0,0,1-1.15-.06,7.15,7.15,0,0,0-1.62-1.45c-.18-.06-.42-.18-.61-.24a2.8,2.8,0,0,0-2.16.72,2.34,2.34,0,0,0-.3,1.27,3,3,0,0,1-.12-.72c-.49,2.46-1.15,4.93-1.75,7.4s-1.21,4.94-1.81,7.35c-.42,2.11-1.08,4.15-1.32,6.26-.42,2.83-.91,5.6-1.27,8.43-.24,1.45-.48,2.89-.66,4.34-.18.54-.12,1.14-.3,1.69-.42,2.71-.84,5.48-1.27,8.19a10,10,0,0,1-1.44,2.71,3.28,3.28,0,0,0-.24,1.86,2.24,2.24,0,0,0,1.44,1.21l.91.18v.54a9.4,9.4,0,0,0,1.2,1.5,2.51,2.51,0,0,1,.36,1.45,5.59,5.59,0,0,0,.73,2.23c.66,1.2,1.08,2.59,1.8,3.79a9.93,9.93,0,0,1,1,3.43c.18,1.09.24,2.17.42,3.26.06.42.06.9.12,1.32a6,6,0,0,1,.24,1.51,4.05,4.05,0,0,0,.78,2c.24,1.15-.54,2.17-.48,3.32a6,6,0,0,0-1.14,1,4.66,4.66,0,0,0-.43,2.23,8.11,8.11,0,0,0-.24,1.74,5.19,5.19,0,0,0-.18,1.93,30.61,30.61,0,0,0-.42,4.1,13.22,13.22,0,0,0-.24,2.16,13.47,13.47,0,0,0-.24,2.17,9,9,0,0,0-.24,2.17c-.24,1.33-.24,2.71-.54,4.1-.12,1.08-.24,2.16-.43,3.25-.48,4.39-1.2,8.79-1.62,13.19a18.37,18.37,0,0,0-.3,1.92c-.18,2.17-.6,4.34-.79,6.51a6.74,6.74,0,0,0-.18,1.92,10.09,10.09,0,0,0-.24,1.93,6.81,6.81,0,0,0-.24,1.93A13.22,13.22,0,0,0,611,779a25.31,25.31,0,0,0-.42,3.67c-.24.78-.12,1.56-.3,2.41a199.08,199.08,0,0,0-.42,3.67,7.24,7.24,0,0,0-.18,2,8.11,8.11,0,0,0-.24,1.74,8.21,8.21,0,0,0-.25,2.17,12.76,12.76,0,0,0-.24,2.17,4.32,4.32,0,0,0-.18,1.51,8.83,8.83,0,0,0-.24,2.16,18.19,18.19,0,0,0-.24,2.53c-.3,1.81-.42,3.62-.6,5.48a5.64,5.64,0,0,0-.18,1.75,8.84,8.84,0,0,0-.18,2.17,6.77,6.77,0,0,0-.24,1.93,8.11,8.11,0,0,0-.24,1.74,8.6,8.6,0,0,0-.24,2.17c-.25.72-.13,1.57-.31,2.29-.66,2.53-1.44,5.06-2.1,7.65-.67,1.68-1.75,3.13-2.59,4.75-.61,1.21-1.51,2.23-1.75,3.56a4.14,4.14,0,0,0-.18,2.1c.18,1.09,1.2,1.69,1.69,2.65a4.42,4.42,0,0,1,.3,2.35,7.29,7.29,0,0,0-1.75,1.39c-.78,1-2.11,1.44-2.59,2.71,0,.78,0,1.56-.06,2.41-.3.78-.3,1.62-.54,2.4-.84,5.48-1.69,11-2.59,16.44-.12,1.33-.42,2.59-.54,3.92-.24,1.14-.36,2.29-.54,3.43a3.07,3.07,0,0,0,2.22,3.31h1.21a13.1,13.1,0,0,0,.18,3.08,6.72,6.72,0,0,1-.78,4.15c-.19.6-.37,1.14-.55,1.75-.06.18-.18.42-.24.6L594,892.29a3.06,3.06,0,0,0-.18,1.26,2.93,2.93,0,0,0-.18-.42,8.12,8.12,0,0,1-.3,1.15c-.06.18-.18.42-.24.66-.79,2.23-1.51,4.52-2.29,6.74a20,20,0,0,1-1.21,3.14c-1.08,1.8-2.11,3.67-3.19,5.48s-1.93,4-3.79,5.36c-1.45,1.32-3.32,2.28-4.34,4a37.87,37.87,0,0,1-4.09,5.18,9.93,9.93,0,0,1-1.39,1.26c-2,1.69-4,3.38-6,5a33.31,33.31,0,0,1-4.64,3.62c-2.23,1.44-4.51,2.83-6.74,4.27a43.37,43.37,0,0,1-4.64,2.77c-4.4,2.23-8.73,4.58-13.13,6.81a14.13,14.13,0,0,1-2.71.9c-2,.72-4,1.26-6,2a21.34,21.34,0,0,0-2.77.9c-.12,0-.36.06-.48.06-.54.18-1.15.3-1.69.54-.78.3-1.68.36-2.17,1.15-.54,0-1.38-.24-1.62.48-1,2.59-1.69,5.24-2.89,7.77a33.13,33.13,0,0,1-3.31,5.06c-1,1.38-2.05,2.71-3.14,4a38.5,38.5,0,0,1-3.07,2.53c-1.14.84-2.47,1.38-3.67,2.11-2.23,1.2-4.4,2.47-6.62,3.61a1.41,1.41,0,0,0-.73,1c-1.44.43-2.95.73-4.39,1-2.77.12-5.48.72-8.25.42s-5.42-.24-8.13-.78a59,59,0,0,1-7.77-2.23c-2-.9-4.1-1.69-6.14-2.47a27.13,27.13,0,0,1-4.58-2.35,25.82,25.82,0,0,1-4.82-3.19c-1.2-1.08-2.47-2.17-3.67-3.25-1.39-1.51-2.53-3.25-3.86-4.82a21,21,0,0,1-2.89-4.28c-1.08-2.28-2.1-4.57-3.19-6.8-1.08-2.41-1.32-5.12-2.29-7.53a8.39,8.39,0,0,0,.24-2.11c.06-1-.66-1.86-.78-2.89-.3-.9,0-1.86-.48-2.71a5.09,5.09,0,0,1-.54-1.32,5,5,0,0,0,.18-1.87c-.18-.78-.6-1.62-.24-2.41a5.2,5.2,0,0,0,.3-2.71,32.54,32.54,0,0,0-3-2.59c-2.29-1.8-4.46-3.73-6.69-5.6a19.6,19.6,0,0,1-2.47-3c-1.5-2-3-4-4.57-6.08a10.47,10.47,0,0,1-1.33-2,1.29,1.29,0,0,0-1.5.42c-1.63-.66-2-2.59-2.29-4.09-.66-.78-.54-1.93-1.09-2.77a2.49,2.49,0,0,0-2.34.06,4.6,4.6,0,0,0-1.69,1.14c-.72.91-1.93.91-2.89,1.39a57.29,57.29,0,0,1-6,2c-2.29.66-4.64,1.32-6.93,1.92-1.81.36-3.55,1.21-5.42,1.15-1.62,0-3.49.18-4.88-.85a16.35,16.35,0,0,1-1.92-1.5,23.17,23.17,0,0,1-2.53-7.47c-.12-1.57-.3-3.07-.36-4.58-.06.43-.06.91-.12,1.33a37.91,37.91,0,0,0-.12-4.52c-.19-1.26-.06-2.59-.19-3.85s-.12-2.77-.18-4.1-.18-2.47-.18-3.67c-.06-1.69,0-3.31-.18-5,0-1.08-.9-1.81-1.2-2.83-.42-1.2-.84-2.41-1.15-3.67-.48-2.65-1-5.3-1.32-8-.24-2.47-.42-4.94-.48-7.35a7.15,7.15,0,0,0-.91-1.81c-.78-1.8-2-3.37-2.53-5.23a63.23,63.23,0,0,1-2.4-8.13,17.11,17.11,0,0,1-.55-3.44,7.9,7.9,0,0,1,.37-3.19,10.55,10.55,0,0,1,1.32-2.59c.36-.36.84-.66,1.26-1.08,1.75-.06,3.5,0,5.24.06.85,0,1.81.18,2.53-.48v-1a2.2,2.2,0,0,0-1.44-.48c.78-1,2.17-1.26,3.31-1.75.54.67,1.39.61,2.11.85.9.48,2,.24,2.95.3.06.78-.18,1.93.66,2.35a9.25,9.25,0,0,0,2.23.06c1-.06,2,.18,2.83-.3a2.54,2.54,0,0,0,.06-2,6.67,6.67,0,0,0,.18-3.07,5,5,0,0,1,1.2-.48,4,4,0,0,1,1.09.42,1.48,1.48,0,0,0,1.14-.91,9.77,9.77,0,0,1-.18-3.49c.24-1.62.06-3.31.24-4.94.18-1.44.06-2.89.18-4.33-.06-1,.18-2,.18-3a35.34,35.34,0,0,1,.43-6.27,3.9,3.9,0,0,0-.85-2.89,6.13,6.13,0,0,1-.9-2.35c-.18-1,.84-1.56,1.2-2.4a2.6,2.6,0,0,0,.06-2.23,2.79,2.79,0,0,1,2.17-.54c.72.06,1.15-.67,1.63-1a1.82,1.82,0,0,0,1.38-.06,3.31,3.31,0,0,0-.24-3c-2.11-2.41-1.8-6.14,0-8.61.6-1.21,2.05-1.51,2.71-2.59a19.28,19.28,0,0,0,3.74.24c1.2.12,1.74-1.14,2.34-1.93.25-1.08,0-2.22.19-3.31.18-1.32.06-2.71.24-4s.06-2.53.18-3.8c.24-1.44.06-3,.3-4.39s.06-2.89.24-4.34c-.06-1.38.36-2.83-.3-4.09-.24-.49-.3-1.09-.48-1.57-.37-.72-1.33-.78-2.05-.66s-1.75-.12-2.59,0a30.9,30.9,0,0,0-4.1.12c-.84.06-1,1-1.74,1.2-.66.91-1.81,1.27-2.53,2.11a4,4,0,0,1-2-.18,22.5,22.5,0,0,0-2.35-2.53,2.4,2.4,0,0,1-.42-1.08c-.12-.67-.66-1.27-.54-2,.06-.9-.18-1.93.3-2.77.3-.54.36-1.21.9-1.57s1-.9.91-1.56-1.09-1.09-1.81-1.27l-.54-.9a6.67,6.67,0,0,1,1-1.51,2.52,2.52,0,0,0,2-1.92c.12-1.51,0-3,.18-4.52,0-2.23.06-4.46.06-6.68.3-3.2,0-6.39.36-9.52.06-2.35.06-4.76.24-7.11.06-1.32,0-2.65.18-3.91.06-2.11,0-4.22.24-6.32-.06-3.32.36-6.63.24-10-.48-.72-1.5-.78-2.16-1.26a10.34,10.34,0,0,0-4.22-1.51,10.45,10.45,0,0,0-4.7.48c-.84.24-1.86,0-2.47.72-.78.91-2,.91-3.07.91a2.86,2.86,0,0,1,1.09-2.59,7.43,7.43,0,0,0,1.08-.84c1.21-.25,2.35-.85,3.61-1.09a13.37,13.37,0,0,1,4.1.18,9.55,9.55,0,0,1,2.89.6,17.32,17.32,0,0,1,2.35,1c.42.36,1,.18,1.5.12a40.37,40.37,0,0,0,.31-5.48.87.87,0,0,1,.12.42c-.12-2.95.24-5.9.24-8.85a13.1,13.1,0,0,1,.12-2.17c.18-1.63,0-3.31.24-4.94.18-1.14-.12-2.29.3-3.37a1.11,1.11,0,0,0-.24-1.27,4.36,4.36,0,0,1-2-2.53c1.15-.6,1.63-1.8,2.23-2.83a38.16,38.16,0,0,0,.24-5.23c-.06-1.27.24-2.47.18-3.68-.06-2.83.3-5.6.24-8.43-.06-1.5.24-3,.18-4.58,0-2.47.24-4.87.24-7.34.12-.91-1.2-1.21-1.08-2.17-.18-1.14-.24-2.35-.42-3.49a17.1,17.1,0,0,1,1.92-2.77,5.1,5.1,0,0,1,3.2-.85c1.2.06,2.28.79,3.43,1.09a2.13,2.13,0,0,0,1.5-1c.37-.48.12-1.08,0-1.56a6.14,6.14,0,0,1,1.27-2.83c.9-.6,2-.79,3-1.33a1.69,1.69,0,0,0,.54-1.38c-.06-2.11,0-4.16,0-6.27a13.55,13.55,0,0,1,.42-2.71,5.34,5.34,0,0,1,1.69-2.83c.54-.6.06-1.26-.3-1.8.12-2.59.12-5.24.18-7.83a7.81,7.81,0,0,0,2.65-.12c.78-.3.54-1.27.36-1.93a1.17,1.17,0,0,0-.18-1.38c-.48-.61-1.26-.49-1.93-.67-.3-.42-.48-1-1-1.08a14.19,14.19,0,0,0,.6-3.49c.06-1,.24-1.93.3-2.95a1.23,1.23,0,0,0-1.38-1.27,5.73,5.73,0,0,1-1.39.6c-1.74.31-3.37-.48-4.88-1.2a6.25,6.25,0,0,1-2.59-7.59,7.4,7.4,0,0,1,2.41-2.29,6.43,6.43,0,0,1,3.5-.66c1.26.18,2.47.42,3.73.54.84.18,1.57-.54,2.41-.24.36-.18.66-.3,1-.48.54.72,1.51.6,2.29.48.48-.12.72-.66.84-1.08q-.18-7.59-.54-15.18c-.06-.66.12-1.44-.36-2a2.07,2.07,0,0,0-1.69-.49,46.23,46.23,0,0,0-.06-5.12c-.18-1.32.25-2.77-.24-4a1.19,1.19,0,0,0-1.5-.78c-1.09.42-2.11,1-3.19,1.38a10,10,0,0,1-3.26-.18,17.59,17.59,0,0,0-3.55-1.26,15.25,15.25,0,0,1-3.13-2.71,5.81,5.81,0,0,1-1-2.41,13.18,13.18,0,0,1,0-6c.48-1.27,1.14-2.47,1.62-3.74a3.13,3.13,0,0,1,2-1.38c1-.18,1.81-.91,2.83-1.15.66-.18,1.45-.24,1.87-.84a1.23,1.23,0,0,0-.79-1.81,10.61,10.61,0,0,1-2.65-.84c-.06-.9-.72-1.69-.48-2.59a3.9,3.9,0,0,1,2.65-1.2,3,3,0,0,0,2.71-2.11,5.31,5.31,0,0,0,.42-1.69,4.17,4.17,0,0,0-.48-1.62c-.84-.06-1.74.12-2.59.12.66-1.93.36-4,.6-6.08.18-1.63.06-3.26.31-4.88.06-.67.18-1.45-.43-1.87a3.14,3.14,0,0,0-2.22-.12c-.85.18-1,1.08-1.63,1.57-.48.3-1-.06-1.51-.31-.66-.36-1.5-.54-1.92-1.26a4.8,4.8,0,0,1-.54-4.34,3.49,3.49,0,0,1,2.1-1.92c1.45-.48,3-.36,4.4-.91a8.53,8.53,0,0,0,.48-3.25c.36-4.82.66-9.69,1.08-14.51.13-1.69-.72-3.31-.84-5-.06-1.44-.06-2.89-.06-4.34-.18-1.44-.12-2.89-.18-4.33,0-.72.3-1.33.36-2.05a13.44,13.44,0,0,1,1.27-5.54c.18-.42.24-.9.42-1.38a4.8,4.8,0,0,0,.72-1.45,7.39,7.39,0,0,1,1.21-2.65,8.18,8.18,0,0,1,1.8-2.47c.48-.54,1.09-1,1.57-1.5a5.24,5.24,0,0,1,3.07-2.11c1.08-.84,2.47-1,3.67-1.57.42-.24.3-.78.24-1.2a4.16,4.16,0,0,0-2.89-1c-.6-.06-1.32-.42-1.74.13s-1,1.32-1.87,1.38c-1.08.3-2.05-.42-3.07-.48a2.32,2.32,0,0,0-2.11-1.57c-1-.06-2.29-.78-2.23-1.92.48-.73,1.21-1.27,1.69-2.05s1.2-1.27,1.44-2.05a2,2,0,0,0-.18-1.32c-.48-.24-1-.24-1.44-.49a5.18,5.18,0,0,1,.06-2.71c0-1.5,0-2.95.12-4.45l-.3-.3a1.56,1.56,0,0,0,.18-1.81,1.45,1.45,0,0,0-2,.42,3.1,3.1,0,0,1-2.41-.54c-.66-.66-1.68-1.32-1.5-2.41s-.06-2.23.78-2.89a6.8,6.8,0,0,1,5.78-.84,1.39,1.39,0,0,0,.66-1.21c0-1.5.24-3.07.24-4.57.37-2.41.06-4.94.37-7.35.06-3,.06-6.08.12-9.09.24-1.51.06-3.08.18-4.64a61.76,61.76,0,0,1,1.2-8.13,72.38,72.38,0,0,1,2.53-8.91c.36-1,1-1.87,1.45-2.83s1.26-1.57,1.56-2.53a2.54,2.54,0,0,0-.12-2c-.36,0-.66-.06-1-.06-.42.72-1.21.3-1.75-.06a4.94,4.94,0,0,1-1.44-2.17,17.57,17.57,0,0,1-1.69-6.8c-.36-2.05.24-4.1,0-6.15-.24-.84-1.33-.78-2-.84a3.26,3.26,0,0,1-2.23-1.14c-.36-.36-1-.48-1.2-1a10.58,10.58,0,0,1-.84-4.51,16.55,16.55,0,0,1,.18-3.44,45.51,45.51,0,0,1,1.8-8,14.16,14.16,0,0,0,1-2.64c.12-.49.66-.79.78-1.27a8.08,8.08,0,0,1,1-2.35c.55-.6.67-1.44,1.39-1.86s1-1.45,1.68-1.93a19.81,19.81,0,0,0,2.29-2.29c.73-1.14,2-1.87,2.59-3.07a15,15,0,0,1,.6-1.75,16.59,16.59,0,0,0,.67-2,42.94,42.94,0,0,1,1.38-5.29c.3-.79.18-1.63.73-2.29a1.28,1.28,0,0,0,0-1.51h-1a4.73,4.73,0,0,1-.9.72c-1.75-.06-3.68.18-5.06-1a7.05,7.05,0,0,1-1.75-2.65,7.85,7.85,0,0,1,1.51-6,1.75,1.75,0,0,0,.3-1.87c-.3-.6.48-1.32-.12-1.86-1-.49-2.35-.49-2.83-1.63a6.75,6.75,0,0,1,.18-2.89,17.22,17.22,0,0,1,2.89-1.51v-2.83a5.44,5.44,0,0,1-.66-1c-.36-.36-.85-.54-1.21-1a14,14,0,0,1-1.14-1.81c0-.24-.06-.42-.06-.6a2.12,2.12,0,0,1-.24-.67,30.11,30.11,0,0,1,3.25-3.43c0-1.5-.06-3,0-4.51a1.53,1.53,0,0,0,.18-1c0-1.38-.06-2.77,0-4.21a1.42,1.42,0,0,0,.18-1v-3.43c0-.36-.06-.72.18-1,.06-1.63,0-3.32.06-4.94a2.25,2.25,0,0,0,.18-1.39,2,2,0,0,0-.18-1.2c0-.12-.06-.3-.06-.42a4.83,4.83,0,0,1-.66-1.51,4.26,4.26,0,0,0-.6-.84c0-.12-.06-.3-.06-.42-.36-.54-.12-1.15-.18-1.75a10.26,10.26,0,0,0,.66-.84c.18-1.33-.66-2.71,0-3.92v-.84a.72.72,0,0,1-.06-.9c.06-.91,1.2-.91,1.56-1.63a5,5,0,0,1,.43-.78c0-.24.06-.42.06-.6A2.08,2.08,0,0,0,416,221c-.61-.18-.91-.72-1.39-1.08a4.14,4.14,0,0,1-1-1.27c0-.12-.06-.3-.06-.42-.42-.54.06-1.2.24-1.75,0-.12.06-.3.06-.42a14.43,14.43,0,0,0,2.35-2.77,8.29,8.29,0,0,1,.18-2.71c.18-2-.18-4.09.24-6.08v-3.79a6.77,6.77,0,0,0-1-1.27c-.25-.42-.43-.9-.67-1.32a5.94,5.94,0,0,0-.78-1.33,3.32,3.32,0,0,1-.42-1.5,2.64,2.64,0,0,1-.18-1.51c.6-.84.84-2.11,1.8-2.65a2.33,2.33,0,0,0,1.15-1.26c.54-1.69.06-3.56.3-5.3a5.65,5.65,0,0,0,0-2.83c-.18-.6.12-1.33-.24-1.87-.06-.36,0-.78-.24-1.08,0-.12-.06-.3-.06-.42a2.66,2.66,0,0,1-.54-.85c-.37-.6-.79-1.2-1.15-1.74a2.5,2.5,0,0,1,1.87-2.17,2.08,2.08,0,0,0,.78-.85,3.15,3.15,0,0,1-.78-1.26c-.06-.12-.18-.3-.24-.42a6.56,6.56,0,0,0-.48-.9c0-.12-.06-.31-.06-.43a2.62,2.62,0,0,1,0-2.16c0-.12.06-.31.06-.43a8,8,0,0,0,.42-1.08,6.37,6.37,0,0,1,2.41-2.65,1.62,1.62,0,0,0,.9-.18c.12,0,.3-.06.42-.06a.9.9,0,0,1,1.08,0c.61.06,1.21-.12,1.75.18.12,0,.3.06.42.06a4.87,4.87,0,0,0,1,.48c0-1.74.06-3.43,0-5.18a27.25,27.25,0,0,1-3.86-3.19,7.79,7.79,0,0,1-1.92-2.89,4.13,4.13,0,0,0-.19-.9,1.11,1.11,0,0,0-.12-.42c-.6-1.57-.36-3.26-.36-4.88a2,2,0,0,0,.18-.36c.06-.42-.06-.91.24-1.33a4,4,0,0,1,.06-.84c.19-.3.31-.6.49-.9.06-.12.18-.3.24-.43a18.18,18.18,0,0,1,1.44-2.28c.6-.79,1.09-1.63,1.75-2.35a16.48,16.48,0,0,1,2-1.51l8.31-6a.42.42,0,0,0,.06-.72c0-.12-.06-.3-.06-.42l-.36-.91c0-.12-.06-.3-.06-.42-.31-.54-.61-1-.91-1.5a8,8,0,0,0-.48-1.09,5.88,5.88,0,0,1-.78-1.32c-.24-.42-.54-.85-.79-1.27a10.44,10.44,0,0,0-.66-1.08l-.54-.9a37.37,37.37,0,0,1-2.71-4.7,37,37,0,0,0-6.62-10,49.7,49.7,0,0,0-3.5-3.61,104,104,0,0,0-8.67-6,13.48,13.48,0,0,0-3.73-1.93c-7.23-2.53-14.4-5.12-21.62-7.59-.48-.18-1-.36-1.51-.54a2.92,2.92,0,0,1-.66-.24c-3.07-1-6.08-2.11-9.15-3-1.21-.36-2.41-.67-3.68-1-5.84-1.68-11.68-3.31-17.58-4.93-.24-.06-.48-.19-.78-.25-1.09-.3-2.23-.66-3.32-1-2-.48-3.91-1.14-5.9-1.62-.36-.13-.72-.19-1.08-.31-3.55-1-7.11-2-10.66-3.07h-1.27a3.51,3.51,0,0,0-1.5,1,11,11,0,0,1-2.59,2.65c-1,.36-1.81,1.08-2.83.9a21.59,21.59,0,0,0-2.83-.66c-1.57-.36-3.13-.79-4.76-1.09-2.59-.72-5.24-1.14-7.83-1.92a22.71,22.71,0,0,0-4.93-1.45h-.67V70.4a5.21,5.21,0,0,0-2.59.9c-.54.37-1,.91-1.74.91a35.9,35.9,0,0,1-4.4-.06c-2.83-.61-5.66-1.39-8.49-2a9.86,9.86,0,0,0-2.95-.54c-.66,0-1.15.54-1.69.84-1,.06-1.92-.3-2.89-.18a4.12,4.12,0,0,0-1.14,1.14,6.38,6.38,0,0,0,.6,2.77A22.89,22.89,0,0,0,274.27,77a17.8,17.8,0,0,1,0,2.53,2.71,2.71,0,0,1-2.71.85,3,3,0,0,1-1.51-1.21A7.18,7.18,0,0,0,269,77.33c-1.15-1.27-2.17-2.77-3.74-3.56-.78-.36-1-1.26-1.38-1.92-1.14-1.93-1-4.46-2.71-6.09-1-1-2.65-.54-3.79-1.38a7.45,7.45,0,0,0-2.41-1,2,2,0,0,0-1.57,2.11,11.86,11.86,0,0,1,1.39,3.5,10.34,10.34,0,0,0,.42,1.26c.24.66.84,1.2.72,2a1.54,1.54,0,0,1-.72,1.38,23.22,23.22,0,0,1-2.89,0,11.21,11.21,0,0,0-1.39-1.92,3.08,3.08,0,0,0-1.44-1.21c-.24-.06-.48-.06-.67-.12a3.69,3.69,0,0,0-1.14-.12,12,12,0,0,1-.3-1.45A16.38,16.38,0,0,1,245.66,65a5.84,5.84,0,0,0-.9-1.69c-.48-.3-1.08-.48-1.39-1-.06-.54-.12-1-.18-1.56a2.07,2.07,0,0,0-1.08-1.63c-.66,0-1.14-.54-1.75-.78a9.87,9.87,0,0,1-1.8-.85c-1.15-.48-2.35-1-3.5-1.38s-2.16-.84-3.25-1.33c-.36-.12-.72-.3-1.14-.42l-1.33-.54-1.86-.72c-1.45-.54-2.89-1.15-4.34-1.75s-2.89-1.14-4.34-1.75-3.07-1.2-4.57-1.86-2.89-1.15-4.34-1.75c-1-.42-2-.78-2.95-1.2a2.77,2.77,0,0,1-1.68-1.15c-2.77-3.67-5.48-7.4-8.32-11.08a13.51,13.51,0,0,1-2.4-4c-.06-.24-.18-.42-.24-.66a2.61,2.61,0,0,0-.13-.73,10.25,10.25,0,0,1,1.87-.3c1.87-.42,3.74-.54,5.6-1,.36-.06.72-.06,1.15-.12,2.65-.54,5.3-.85,8-1.33,3.61-.54,7.22-1.2,10.84-1.68a6.76,6.76,0,0,1,1.08-.18c1.93-.49,3.85-.43,5.78-.79,1.75-.12,3.49-.42,5.24-.54.9-.24,1.87-.06,2.77-.36,1.51-.06,3-.42,4.52-.6a25.48,25.48,0,0,0,4.81-1,3,3,0,0,0,1.75.12m129.59,37a3.5,3.5,0,0,1-.48,1.08,3.39,3.39,0,0,0,.73,1.33,5.92,5.92,0,0,0,1.68.72c1.51.36,3,.78,4.58,1.21,1.08.36,2.17.54,3.25.9a5.59,5.59,0,0,0,1.75.12,3.65,3.65,0,0,1,1-1,1.48,1.48,0,0,0-.24-1.33,4.22,4.22,0,0,0-2.89-1.93,25.18,25.18,0,0,0-3,0l.72-.18c-2.11-.24-4-1.32-6.14-1.32l-.91.36m24.76,4.94c-.19.18-.43.36-.61.54a9.12,9.12,0,0,0,0,1.81,21.68,21.68,0,0,0,2.47,1.5A33.14,33.14,0,0,1,407,66.61c.24.06.43.18.67.24s.36.06.48.06c1,.42,2.17.6,3.19,1,2.35.78,4.76,1.27,7.11,2,2.4,1,4.75,2.11,7.16,3.25.66.24,1.27.6,1.93.84a3.15,3.15,0,0,0,3,.3c1-.6.72-1.92.72-3A2.65,2.65,0,0,0,429.46,69c-1.09-.49-2.11-1.15-3.2-1.51-.3-.12-.54-.18-.78-.3l-.9-.36c-1.51-.54-3-1.15-4.52-1.63L419.4,65a2.92,2.92,0,0,1-.66-.24,3.19,3.19,0,0,1-.67-.24c-.66-.24-1.32-.42-1.92-.66a3.19,3.19,0,0,1-.67-.24c-1.44-.31-2.89-.61-4.27-.85a7,7,0,0,1-1.08-.24L408,62.15c-.85-.24-1.69-.3-2.47-.48a9.59,9.59,0,0,0-3.67-.24m29.5,77c-1.08.72-1.26,2.05-1.62,3.19s.06,2.11-.42,3.07a3.69,3.69,0,0,0-.19,3.19,5.3,5.3,0,0,1-.36,2.17,17.49,17.49,0,0,0,0,3.07,3.37,3.37,0,0,0,.79,1.09,4.47,4.47,0,0,0,1.56.12l.66-.66a12.41,12.41,0,0,0,.85-2.11,29.51,29.51,0,0,1,.3-3.25c.3-.91-.12-2,.36-2.83a6.09,6.09,0,0,0,.9-3.38,7.5,7.5,0,0,0-.78-3,5.41,5.41,0,0,1-.6-.54,5.92,5.92,0,0,0-1.45-.12m-.24,48a4,4,0,0,0-.66.42c-.12,0-.3.06-.42.06-.42.3-1,.06-1.33.36a8.86,8.86,0,0,0-1.26.06,2,2,0,0,1-.36.18,6.27,6.27,0,0,0-2.59.3v2.71a2.24,2.24,0,0,0,.42.36,14.67,14.67,0,0,0,.24,4c.06.3-.36.42-.6.54l-.24.48c-.06,1.32.06,2.71-.06,4a8.65,8.65,0,0,0-.18,2.77v9.82a1.7,1.7,0,0,0,.78-.24c.9.06,1.69-.3,2.59-.3.42-.3,1-.12,1.5-.18.55-.36,1.33-.12,1.93-.24.6-.42,1.39-.12,2.05-.18a32.71,32.71,0,0,1,.18-5.42c.06-2.05,0-4.16,0-6.21-.48-.42-1.08-.66-1.33-1.26V198c-.24-.18-.42-.42-.66-.6v-.49a4.58,4.58,0,0,0-.48-.66c.06-.12.12-.3.18-.42a2.92,2.92,0,0,1,.24-.66c0-.12.06-.3.06-.42.3-.49,0-1.09.36-1.57a1.11,1.11,0,0,1,.12-.42c.18-.36.18-.78.37-1.09,0-.12.06-.3.06-.42a4,4,0,0,1,.42-.66,2,2,0,0,0-.18-1.32c0-.12-.06-.31-.06-.43l-.37-.9c0-.12-.06-.3-.06-.42a2.06,2.06,0,0,1-.18-1.21,1.23,1.23,0,0,1-.48.13m-.84,31.79c-.3.24-.72.18-1.08.24a2.42,2.42,0,0,1-1.33.18c-.3.24-.72.18-1.08.24a2.33,2.33,0,0,1-1.33.18,1.61,1.61,0,0,1-1.08.19,1.89,1.89,0,0,0-1,1c0,.12-.06.3-.06.42a2,2,0,0,0-.18.36c-.06,1.21,0,2.35,0,3.55.3.55.61,1,.91,1.51a8.88,8.88,0,0,0,.78,1.26V230c0,.37.06.73-.18,1,0,.12-.06.3-.06.42a1.67,1.67,0,0,0-.18,1.08c-.18.31-.3.61-.48.91a22.57,22.57,0,0,1-1.21,2.17,4,4,0,0,1-.06.84,2,2,0,0,0-.18.36c-.06,1.69,0,3.37-.06,5.06a1.39,1.39,0,0,0-.18,1v4.16c-.42,1.74-.12,3.61-.24,5.42-.48,1.8,0,3.73-.24,5.54a4.92,4.92,0,0,0-.12,2.1c.48.73,1.08,1.39,1.5,2.17-.06.66.18,1.39-.18,2-.06.54.12,1.2-.24,1.75-.12.72.18,1.5-.18,2.16,0,.12-.06.31-.06.43a2.24,2.24,0,0,1-.42.36c-.12.36-.18.72-.3,1.08a1.92,1.92,0,0,0-.18.84,1.77,1.77,0,0,0-.18,1.09l.54.54h1.5c.49.3.91.6,1.39.9a10.6,10.6,0,0,1,.18-3.07c.12-2.17-.06-4.33.06-6.5a4.66,4.66,0,0,0,.18-1.81c-.12-.24-.3-.42-.42-.66s-.06-.42-.06-.66-.18-.67-.24-.91c.12.12.24.3.36.43-.18-.55.3-1,0-1.57a2.82,2.82,0,0,0,.54.36,2.23,2.23,0,0,1,.12-.54h-.48c0-.18-.06-.48-.06-.6h.66l-1-.18a1.09,1.09,0,0,0,.18,1.32l-.54.72c.18-.66-.3-1.38.12-2,0-.12.06-.31.06-.43a2.92,2.92,0,0,0,.24-.66,3.61,3.61,0,0,1,2.23-1.86c.54-.19,1.14-.91,1.62-.37a3.65,3.65,0,0,1,.06-1.14c.36-1.14-.06-2.35.3-3.49s-.24-2.17.25-3.13c.06-1,0-2,.06-3,.48-1,0-2.1.24-3.13s-.06-2.35.3-3.49-.24-2.17.24-3.13c.18-1.09-.24-2.23.24-3.25a23.2,23.2,0,0,1,.12-2.89c.3-1,0-2,.18-3.08.36-1.08.06-2.22.18-3.37a1.39,1.39,0,0,0,.18-1v-2.41c-.12.3-.42.36-.72.36m44.44,51.37A11.11,11.11,0,0,0,473.6,272a11.65,11.65,0,0,0-.06,2.89,21.58,21.58,0,0,1,.24,2.77,2.35,2.35,0,0,1,.48.6,9.12,9.12,0,0,0,1.81,0c.18-.18.3-.42.48-.6,0-.9.24-2-.42-2.77a1.62,1.62,0,0,1,.18-.9c0-.12.06-.37.06-.43a3.05,3.05,0,0,0,.24-1.32,5.89,5.89,0,0,0,.18-2.71c-.72,0-1.39,0-2.05.06m-1.2,19.57a6.83,6.83,0,0,1-.12,1.93,2.54,2.54,0,0,1-.3.42v.9a8.32,8.32,0,0,0,1,1.09,2.21,2.21,0,0,0,2.89-1.81c0-.18-.06-.42-.06-.6a8.82,8.82,0,0,0-.6-.78v-.55l-.18-.06c-.12-.36-.18-.72-.3-1.08h-.61v-.24a2,2,0,0,0-1.68.78m9.27,9.52c-.12,1.08.78,1.8.9,2.83a16.2,16.2,0,0,1,.25,1.92,8.18,8.18,0,0,0,1.14,2.83c.78,1.39.66,3,1,4.52a4.09,4.09,0,0,1-.36,2.23,11.3,11.3,0,0,0-.3,3.19c-.12.42-.18.84-.3,1.26-.12.73.06,1.51-.42,2.11a14.5,14.5,0,0,0-1.39,2.35,11.2,11.2,0,0,0-1.26,2,6.59,6.59,0,0,0,0,2.17c.36.78,1.2,1,1.87,1.38a2.3,2.3,0,0,0,2.4-.06,8.19,8.19,0,0,1,2.11-.78c.24-.24.42-.48.66-.72a10.16,10.16,0,0,0,.43-1.51c1-4.7,1.86-9.45,2.83-14.15.3-1.93,1-3.86,1-5.78a4.19,4.19,0,0,0-1-1.33,10.11,10.11,0,0,1-2.47-2.41c-1.21-1.68-3.25-2.22-4.82-3.49h-1.2c-.55.42-1.09.84-1.09,1.45m-2.41,71.9c-.78.24-1.14,1-1.86,1.38a3.54,3.54,0,0,0-1.39.91c-.42.6-.72,1.32-1.2,1.92V376c.3.24.54.54.84.78a2.15,2.15,0,0,0,1.5,0c.61-.24.91-.84,1.63-.6.42.42,1,.42,1.51.6a6.16,6.16,0,0,0,1.5.42,2.19,2.19,0,0,0,1.81-1.38c.24-1.27-.18-2.59.24-3.86a4.14,4.14,0,0,1-.24-.6,2.33,2.33,0,0,0-1.75-1,11.94,11.94,0,0,0-2.59.24m-6.8,45.77a2.7,2.7,0,0,0-1.81.12,9.63,9.63,0,0,1-.24,2.29,16.38,16.38,0,0,0-.06,3.43,14.28,14.28,0,0,0,.12,2.77c1.45-.24,2.29-1.63,3.73-1.93a15.83,15.83,0,0,1,4.76-.06,8.07,8.07,0,0,1,3.73,1.15c1,.42,1.45,1.38,2.23,2.1a19,19,0,0,1,2.77,4.16,23.71,23.71,0,0,1,2,4.88,15.33,15.33,0,0,1,.9,3.37c.24,2.17.61,4.27.85,6.38,2,.54,4.15.54,6.2,1a.47.47,0,0,0,.66-.43,6.88,6.88,0,0,1,.42-3.49c.24-.6,0-1.32.49-1.81.9-.78,1.62-1.8,2.83-2.22.18-1.21-.49-2.35-.91-3.44-.54-.18-1.26-.36-1.38-1a24.09,24.09,0,0,1-.85-5.84,9.75,9.75,0,0,1,.12-3.49,2.73,2.73,0,0,0-.12-2,11,11,0,0,0-4-1.75c-3.19-.84-6.38-2-9.64-2.59a44.54,44.54,0,0,1-6.32-.78c-2-.48-4-.72-6-1.2a1.91,1.91,0,0,1-.42.36m18.79,34.32c-.73.79-.73,1.87-1.09,2.83-.54,1.75-.78,3.62-1.74,5.18-.61,1-1.09,2.35-2.23,2.95-.6.24-.72,1-1.39,1.27a2.59,2.59,0,0,0-1.44,1.2c-1.81,0-3.68.06-5.48.06a13.22,13.22,0,0,1-2.17.12c-.54-.12-1-.3-1.51-.42a5.84,5.84,0,0,0-2-1.26c-.12-.18-.24-.43-.36-.61-.31,0-.61-.06-.91-.06-.72.79-.42,1.81-.3,2.77.06.37.12.85.54,1a44.79,44.79,0,0,0,6.33.36c1.74.06,3.43-.18,5.17-.18a8.8,8.8,0,0,0,2.17-.18,4.33,4.33,0,0,0,3.92-.42c1.44-.18,2.95.12,4.39-.18.91-.19,2,0,2.65-.85.06-1.38,0-2.77,0-4.15-.06-1.21.18-2.47.12-3.68a7.07,7.07,0,0,0-.24-2.77,8.67,8.67,0,0,1-.24-1.74,1.76,1.76,0,0,0-1.5-1.15,20.48,20.48,0,0,0-2.71-.06M505.88,457a2.79,2.79,0,0,0,.24,3.43,2.5,2.5,0,0,0,1.74.36,2.77,2.77,0,0,0,2.05,1c.36.61,1.14,1,1.33,1.69a4.06,4.06,0,0,0,1.08,1.39c-.18.72-.42,1.38-.54,2.1a2.38,2.38,0,0,0,1.08,1.75c-.12.54-.6,1-.84,1.44a2,2,0,0,0-1.33,2.05c.06,2.17-.12,4.34,0,6.45.18,1.2,1.63,1.08,2.53,1.2,1-.06,2.11.3,2.95-.36a7.21,7.21,0,0,0,1.27-2.89c.84-3.8,1.62-7.59,2.47-11.32.06-1-.06-2-.06-3a5.35,5.35,0,0,0-1.57-2.11c-.9-.79-2.11-.91-3.19-1.33-2.41-.78-4.82-1.5-7.29-2.23a1.57,1.57,0,0,0-1.92.43m-34.51,11.14a4.18,4.18,0,0,0-.24,2.29,8,8,0,0,0,.06,1.68,2.33,2.33,0,0,1,.66,1.27,4.5,4.5,0,0,0,1,.3,9.08,9.08,0,0,1,1.39-1.57,16,16,0,0,1,2.41-1.44,14.13,14.13,0,0,1,5.3-1,8.76,8.76,0,0,1,3.91.91c.85.42,1.51,1.32,2.41,1.68,3.07,0,6.2.42,9.27.24.49-.24.31-1,.07-1.26a12.54,12.54,0,0,0-2-.54,49.45,49.45,0,0,1-6,.12,6.37,6.37,0,0,1-.85-2.11c-.06-.36-.54-.24-.78-.24-2.17.06-4.34-.06-6.5-.18-1.93,0-3.86-.06-5.85-.06a11.38,11.38,0,0,0-4.27-.06m21,8c-.37,2,1,3.61,1.62,5.3a5.13,5.13,0,0,1,.24,1.92.7.7,0,0,0,1-.06c.42-.6.12-1.44.3-2.11a2.81,2.81,0,0,0,0-2c-.18-.54-.91-.54-1.09-1.09s.06-1.2-.24-1.68a2.54,2.54,0,0,0-1.86-.3m4.09,6.86a12.49,12.49,0,0,0,.42,3,1.12,1.12,0,1,0,1.51.18c.18-.3.48-.66.42-1-.06-1,.18-2.17-.66-2.89a1,1,0,0,0-1.69.72m.54,6.51a1.47,1.47,0,0,0-.66,1.44v8c.06,3.19-.18,6.32-.06,9.51a1.34,1.34,0,0,0,1.14,1,1.25,1.25,0,0,0,1.21-1.21c.06-4.81,0-9.69.12-14.51,0-1.08.06-2.17,0-3.25a1.21,1.21,0,0,0-1.75-1m-18.3,6c-.06,3.85-.24,7.77-.31,11.62,0,.84-.24,1.87.49,2.47a1.1,1.1,0,0,0,1.74-.6,30.9,30.9,0,0,0,.24-3.38c0-1.92.06-3.91.06-5.84.06-1.44.18-2.89.12-4.33-.06-.67-.66-1-1.2-1.21-.48.3-1.08.6-1.14,1.27m6.74.24c-.48,4.15-.9,8.37-1.32,12.52-.06.67-.06,1.57.6,1.93.42.3,1,0,1.38-.18.36.12.67.48,1.09.36a1.42,1.42,0,0,0,1-1.38c.24-1.81.66-3.62,1-5.42.25-.79-.12-1.63.06-2.41.37-1.63-.18-3.31.07-5a1.35,1.35,0,0,0-.79-1.51c-.42-.24-.9.06-1.32.24a1.17,1.17,0,0,0-1.81.85m8.61,3.61c0,.36-.36.48-.54.66a3.3,3.3,0,0,1-.12-1.32,1,1,0,0,0-.36-.36,2.6,2.6,0,0,0-.36-2.11c-.12.06-.3.24-.42.3a9.13,9.13,0,0,1-.25,3.85c-.18,1.33-.54,2.59-.6,3.92.48.54-.06,1.14-.06,1.75-.18.84.6,1.44.91,2.22a3.21,3.21,0,0,0-1.33,1.75c.3.42.6,1,1.21.9a4.94,4.94,0,0,0,1.5-.72c.36.12.78.48,1.21.24a1.3,1.3,0,0,0,.9-1.38c-.06-1.33-.18-2.65-.24-3.92,0-.6-.36-1.08-.36-1.68a14,14,0,0,1,.06-2.23,11.28,11.28,0,0,1-.06-4.94c.12-.48-.37-.6-.73-.6-.24,1.26-.24,2.47-.36,3.67m-16,15.06a1.09,1.09,0,0,0-.84,1.56,1.69,1.69,0,0,0,1.45.78c1.26.07,2.59.13,3.91.13,3.19,0,6.32.24,9.52.24,1-.06,2,.3,2.83-.37a1.08,1.08,0,0,0-.55-1.8,20.65,20.65,0,0,0-3.37-.24c-4.33-.06-8.67-.48-12.95-.3m19.33.6a1.14,1.14,0,1,0,1.33.9,1.28,1.28,0,0,0-1.33-.9m-88.16,1.74a12.22,12.22,0,0,1-2.23.37,12.08,12.08,0,0,0-1.74,1.32,7.65,7.65,0,0,0-1.69,2.23c-.72,1-.54,2.23-.66,3.37-.18,1.33.84,2.41,1.38,3.49a4.16,4.16,0,0,0,1.93,1.57,7.22,7.22,0,0,0,2.29.66,2,2,0,0,0,1.32-.06,19.82,19.82,0,0,0,2.05-.78c.72-.48,1-1.33,1.51-1.93s1.2-1,1.08-1.8a14.35,14.35,0,0,0-.78-4.76c-.54-1-1.45-1.81-2-2.83a2.22,2.22,0,0,0-2.47-.84m71.54,7.64c-1.08.06-2.22-.18-3.19.3a17.43,17.43,0,0,1-1.68.73,1,1,0,0,0,.24,1.56,3.74,3.74,0,0,0-1.39,1.81c-.42,1.5-1.2,3.13-.54,4.64a7.1,7.1,0,0,1,.84,3.31c0,3,.48,6,.73,9a1.13,1.13,0,0,0,1.32,1.08,7.14,7.14,0,0,1,2.77-.12c1.39.12,2.77.79,4.16.43a5.46,5.46,0,0,1,3.07.36,7,7,0,0,1,2.71-.54c2.41-.73,5-.19,7.4.24,1.21,0,2.29.48,3.5.48.84,0,1.56.72,2.41.66a1,1,0,0,0,.66-1v-4c-.24-2.17-.06-4.39-.12-6.56-.06-3.55.06-7.11-.06-10.6a1.85,1.85,0,0,0-1-.3,12.56,12.56,0,0,1-3-.3c-.9-.18-1.38-1.39-2.41-1.27-5.48.12-11,.12-16.44.12m4.1,28.79c-.9.36-1.39,1.2-2.23,1.62-.6.37-1.26,1.09-.9,1.81s1.62.54,2.35.42c1.08-.54,2-1.62,3.25-1.74a24.85,24.85,0,0,1,3.67-.06c1.09.18,1.81,1,2.83,1.44a6.71,6.71,0,0,0,1,2.35,4,4,0,0,0-.12,2,3.51,3.51,0,0,1-.78,2.53c-.48.78-1.62,1-1.93,2a15.07,15.07,0,0,1-.3,1.63c-.18.66-.24,1.69.49,2a3.86,3.86,0,0,0,2.71-.18,4,4,0,0,1,2.22.06c1,.66,1.33,2,1.81,3s.18,2,.18,3.07-1.44,1.5-1.44,2.59v7.35a4.57,4.57,0,0,0,.3,2.4c.3.06.6.06.9.12a7.29,7.29,0,0,1,1.2,2.89,1.73,1.73,0,0,0-1.26.61,1.91,1.91,0,0,0-.24,1.8c.24.79-.12,1.63.18,2.41a4.4,4.4,0,0,0,2.65.24c1.2-.36,2.59-1.26,2.53-2.71-.06-9.63-.06-19.33-.06-29-.3-2.89-.06-5.78-.18-8.67a1,1,0,0,0-.54-.85,11.49,11.49,0,0,0-3.08-1.26c-.66-.18-1.2-.78-1.92-.78a8.18,8.18,0,0,1-2.65-.49,4,4,0,0,0-1.87-.12c-1.32.06-2.59-.18-3.91-.06a18.67,18.67,0,0,0-4.82,1.51m26.74,11.26c.06,1.69,0,3.31.18,5,.12,1.44,0,2.89.18,4.39s0,3.26.24,4.88l-.42.18c.24.12.36,0,.48-.18a13,13,0,0,0,0,2.65,9.3,9.3,0,0,0,.3,2.89c.24.54.84.3,1.33.3.24-.54.12-1.26.6-1.68s.3-1,.36-1.45c-.06-1.2.78-2.23.6-3.43a19.68,19.68,0,0,1-.18-3.25c-.06-1.15.54-2.41-.12-3.56-.48-.78-.24-1.74-.48-2.59s-1-1.8-1.39-2.77c-.06-.66,0-1.38-.54-1.86a1.07,1.07,0,0,0-1.14.48m-32.76,17.28a4.44,4.44,0,0,0-3.8.42c0,.49-.18,1.09.42,1.33.79.36,1.69.06,2.53.12.55-.12.67.6,1.15.72a9.39,9.39,0,0,1,2.89,1,9.54,9.54,0,0,0,2.17,1.26,1,1,0,0,0,1.26-1.08c.24-1.81-1.26-3.8-3.19-3.56-.36-.24-.6-.72-1.08-.72-.79,0-1.75-.12-2.35.54M470,583.3v1.08a3.28,3.28,0,0,0,2.59-.54,1.26,1.26,0,0,0-.24-1.2c-.84-.18-1.5.54-2.35.66m48.24,5.42a2.48,2.48,0,0,0-1,2.11c-1.45.66-3,1.14-4.1,2.34a4.44,4.44,0,0,0-.24,2.17c-.12.18-.3.36-.42.54a9.3,9.3,0,0,0-.24,2.89c0,10,.06,20.06.06,30.05a31.79,31.79,0,0,1,.18,4.1c0,10.66.06,21.38.06,32a9,9,0,0,0,.12,2.53,2.69,2.69,0,0,0,1.45,2c1.26.85,2.89.79,4.33.79.84.06,1.57-.36,2.41-.24a6.07,6.07,0,0,0,2.17,1.26c.72.12.72,1,1.26,1.45a2.67,2.67,0,0,0,2.23,1,4.76,4.76,0,0,1,.24.54c0,.12.06.36.06.48.54.12.85.73,1.45.79a1.87,1.87,0,0,1,.24.36h.78a2.63,2.63,0,0,0,1.33-1.45,38.51,38.51,0,0,0,.54-4.51,28,28,0,0,0,.42-3.92,25.47,25.47,0,0,0,.42-3.67,8.21,8.21,0,0,0,.24-1.75c.24-.78.06-1.56.3-2.35.06-.54.06-1,.12-1.5a11.42,11.42,0,0,0,.24-1.93c.43-2,.37-4,.79-6,.12-1.87.42-3.74.66-5.6.78-4.16,1.63-8.31,2.35-12.53.24-.78.3-1.62.48-2.41.54-3,1.14-5.9,1.69-8.85.3-1.2.48-2.47.72-3.67l.36-2c.24-.84.3-1.75.48-2.59a36,36,0,0,0,.6-3.67,10,10,0,0,0,.43-4.82c-.25-1,.18-1.87.24-2.83a6,6,0,0,0,0-2.53,1.82,1.82,0,0,0-1.45-1.39.21.21,0,0,0-.12-.06,2.53,2.53,0,0,0-1.87,1,2,2,0,0,1,1.09-.6,2.61,2.61,0,0,0-1.15,1c-.06.6-.12,1.2-.24,1.81-1,4.51-2.23,8.91-3.31,13.43a83.49,83.49,0,0,0-1.75,8.43c-.48,2.34-.84,4.75-1.38,7.1-.12.78-.24,1.57-.42,2.35-.3,1.75-.66,3.49-1,5.24a32.15,32.15,0,0,0-.9,6.26,2.38,2.38,0,0,0-1,.73,3,3,0,0,0-.12.78,32.53,32.53,0,0,1-.73-4.1,12.35,12.35,0,0,1,.37-2.59c.12-.9.24-1.86.42-2.77.3-2.41.66-4.75,1.08-7.16.24-2.23.72-4.46,1-6.75.85-5.06,1.69-10.17,3-15.17l.12-.18c.24-1.33.6-2.65,1-4a14.77,14.77,0,0,1,1.2-2.59,2.16,2.16,0,0,1,.12-.66c-.06-.24-.06-.48-.12-.72s-.42-.61-.6-.91a3.21,3.21,0,0,0-2-3.13,28.93,28.93,0,0,1-2.89-1.68,2.66,2.66,0,0,0-2.16-1.57c-1-.06-2,0-3,0a3.26,3.26,0,0,1-2-.36,6.37,6.37,0,0,0-3.8-.54,3.33,3.33,0,0,1-.78.3M484,596.55a7.28,7.28,0,0,1,.66,2.22,26.68,26.68,0,0,0,1.08,3.74,5.39,5.39,0,0,0,1.39,0c.18-1.21.9-2.59.12-3.74-.3-.6.06-1.32-.18-2a2.2,2.2,0,0,0-2.41-1.45.83.83,0,0,0-.66,1.21m17.7,4.21a17.67,17.67,0,0,0-.84,1.87c-.24.66-.91,1-1.33,1.5-.6.73-1.62,1.15-2,2.11-.18,1.45-.3,3-.48,4.46-.18.78.73,1.2.61,1.93a23,23,0,0,0,.3,3.49c-1,1.08-1,2.71-1,4.09a9.75,9.75,0,0,1,.3,2.35c.67,1.09,1.57,2.05,2.17,3.19.42,1,.54,2.17,1,3.14a14.44,14.44,0,0,1,1.08,3.91,10.41,10.41,0,0,1-.72,4,9.11,9.11,0,0,1-1.33.85c-.66.48-1.68.54-1.86,1.38a14.86,14.86,0,0,0,.18,4.1c-.06,2.47.06,4.94,0,7.34-.12,1.15,1.2,1.57,2.1,1.57a1.2,1.2,0,0,0,.73-1c0-1.69,0-3.32-.06-5-.12-.66.54-1.27.18-1.93-.42-.3-1.09-.36-1.15-1-.12-1-.42-2.17.36-3,.91-1.21,2.71.48,3.62-.73a10.93,10.93,0,0,0,.06-2c-.12-1.69.06-3.32-.18-4.94-.12-2.65.06-5.36,0-8,.24-3,.06-6.08.12-9.09.06-.61-.18-1.33.24-1.87-.42-.06-.36.48-.36.78.12,3.07-.06,6.14.06,9.16-.06-.61-.12-1.21-.12-1.81.18-2.71.06-5.48.06-8.19a5.52,5.52,0,0,0,.24-2.41c0-3.25.06-6.44,0-9.64a2.16,2.16,0,0,0-2-.72m-11.5,1.09c.24.48.84.18,1.26.24v-1.15h-.78c-.48-.06-.6.54-.48.91M490,612c.24.06.48.18.72.24a3.23,3.23,0,0,0,1.2-.6c-.06-1,.31-2.11-.3-3a5.55,5.55,0,0,0-1.74-.24c-1,1-.67,2.59.12,3.61m-5.24-3c-.6.91-.42,2.11-.48,3.13-.18,1.33,0,2.59-.18,3.92,0,.66-.31,1.44.3,1.92a1.14,1.14,0,0,0,1.08.19c.72-.25.78-1.15,1-1.75a5.07,5.07,0,0,0,.31-2.35,8.08,8.08,0,0,1,.66-2.35c.18-.78-.48-1.44-.42-2.23a2.84,2.84,0,0,1-1.33-.72c-.3.06-.78-.12-1,.24m3.79,7.71a1.2,1.2,0,0,0-.18,1.87,2.39,2.39,0,0,0,1.09.42,2.45,2.45,0,0,0,3,.12c.36-.84.54-2.17-.43-2.65a6.29,6.29,0,0,0-3.49.24m-.9,13c-1.57.48-3.19.18-4.76.6a13.47,13.47,0,0,1-2.23.12c-.54,0-1.08-.3-1.56,0s-.18,1,.06,1.33c.78.12,1.5-.31,2.23-.19.66.91,1.8,1.09,2.77,1.57a6.64,6.64,0,0,1,1.62,1.81c.6.78.54,1.86,1.27,2.59.42.12,1.08.18,1.32-.24a2.52,2.52,0,0,0-.24-1.75,5.59,5.59,0,0,1,1,1.87c.12.54.18,1.08.31,1.62a1.16,1.16,0,0,1-.37.36c-.6.61-.06,1.45-.12,2.17-.12,1.15.67,2,.91,3.19.24.91.18,1.87.48,2.77s-.12,2.29.72,3.14h1c.73-.67.43-1.81,1.21-2.41,1-.85.54-2.23.6-3.38-.42-1.86-.72-3.85-1.93-5.42a16.63,16.63,0,0,0-.18-3c-.48-1.32.06-2.83-.6-4.09a5.57,5.57,0,0,0,.12-2c-.18-.42-.66-.84-1.14-.66-.73.18-1.57-.3-2.47,0M502,644.36c-.06.12-.24.3-.3.42,0,2.53.24,5.06.24,7.65,0,.78.12,1.57.12,2.41,0,3.31.24,6.62.06,10,0,.78,1,.54,1.45.54a2.66,2.66,0,0,0,.48-1.21,19.67,19.67,0,0,0-.12-3.25c-.18-2.83,0-5.66-.24-8.43-.06-2-.06-4-.06-6.08-.06-.84,0-1.87-.91-2.29a1.71,1.71,0,0,0-.72.24M499.49,654l-.42.42a3.42,3.42,0,0,0-.06.78c-.42.18-1,.36-1,.9-.12,3.68.12,7.35-.18,11a7.22,7.22,0,0,1,.36,1.92c-.12,2.17.06,4.34,0,6.51a7.58,7.58,0,0,0,.3,3.07,9,9,0,0,0,1,2c.06,1,0,1.93.06,2.9-.54.78-1.74,1.44-1.44,2.52a9.16,9.16,0,0,1,.12,3.14,3,3,0,0,0,2.35.9,7.19,7.19,0,0,0,.66-.72c-.06-1.57-.12-3.13-.24-4.7a17.68,17.68,0,0,1-.12-4,15,15,0,0,0,.12-3.67V672.3c-.24-2.89-.12-5.78-.18-8.67-.06-2.53.06-5.06-.12-7.59.12-.66.36-1.5-.24-2a4.69,4.69,0,0,0-.91-.06m-7.95,4.45c-1,.79-.54,2.17-.78,3.25a27.15,27.15,0,0,1-1,4.4c-.12.66-.37,1.75.54,2a3.21,3.21,0,0,0,2.47-.3c.78-.48.6-1.51.54-2.23-.24-1.39.06-2.83-.54-4.1a3.67,3.67,0,0,0,.12-3.07,1.1,1.1,0,0,0-1.39,0m-88.34,9.22c-.66.18-1.33.06-1.93.24a1.48,1.48,0,0,0-.84,2c.24.67,1,.85,1.62,1a2.31,2.31,0,0,0,2.23-.66,1.88,1.88,0,0,0,.36-1.93,1.22,1.22,0,0,0-1.44-.66M502.08,671c0,2.53.06,5.06.06,7.59-.06,1.38.18,2.71.12,4.09.12,2.47-.24,5.06.54,7.47H504a3.91,3.91,0,0,0,.3-1.21c.06-6-.12-11.86,0-17.82a8.57,8.57,0,0,0-.9-1.08h-.73a1.41,1.41,0,0,0-.54,1m-101.29.72a2,2,0,0,0-.54,1.51c-.12,2.77-.06,5.54-.24,8.31-.12,1.68.06,3.37-.18,5-.18.78.6,1.26,1,1.8.78,1.09.9,2.47,1.63,3.56a1.18,1.18,0,0,0,2-.61c.18-1,0-2,.12-3.07,0-1.86.24-3.73.18-5.66a15.86,15.86,0,0,1,.25-3.43c0-.66.54-1.09.84-1.63s1-.6,1.26-1.08a3.34,3.34,0,0,0,.3-1.87,1.55,1.55,0,0,0-.84-1.44c-1.2-.67-2.65-.55-3.85-1.21-.6-.18-1.33-.72-1.93-.18m87.32,1c0,1-.72,1.86-1,2.77a14,14,0,0,1-1.63,2.83c.12.24.18.48.3.72.6.42,1.33.24,2,.3a11.71,11.71,0,0,1,4.33.42,1.73,1.73,0,0,0,1.15-1.56c.06-1.33-.18-2.71.36-3.92.18-.6-.24-1.2-.36-1.75-.72-.54-1.63-.24-2.41-.36-.6-.06-1.14-.42-1.75-.36a.84.84,0,0,0-1,.91m25.59,1.86c-.18.24-.42.48-.6.72a16.2,16.2,0,0,0-.06,2.41c.06,2.89,0,5.78.12,8.61.36,2.29-.06,4.7.3,7,.12,2.17.06,4.34.06,6.5.36,2.89.12,5.79.24,8.68a10.21,10.21,0,0,1,.12,2.34c0,1.75,0,3.5.06,5.24.31,2.59.12,5.24.25,7.89a33.1,33.1,0,0,1,.18,4.22c.06,2.89-.06,5.78.24,8.67,0,3.25.06,6.5.06,9.7a7.36,7.36,0,0,0,.72,1.56,4.89,4.89,0,0,1,.36,2.77,7.42,7.42,0,0,0,.3,3.25c.54,1.39,1.69,2.47,2,3.92a4,4,0,0,0,1.5,2.29c.73.48,1.27,1.2,2,1.68h.54c.73.12,1.15-.66,1.63-1.08,0-.12.06-.36.06-.48a14.7,14.7,0,0,0,.18-2.83c.06-1.75.06-3.5.06-5.24a41,41,0,0,0,.18-5.42c-.06-1,.24-2,.18-3,.06-1.69,0-3.32.06-5,.36-2.41,0-4.94.36-7.35.06-1.75,0-3.43.06-5.18a26.35,26.35,0,0,0,.19-3.07c-.07-1.63.3-3.25.24-4.88l.18,1.45a24.07,24.07,0,0,1,.24-4.64,18.9,18.9,0,0,0,.24-2.59,13.22,13.22,0,0,0,.24-2.17,18.75,18.75,0,0,0,.24-2.59,7.38,7.38,0,0,0,.18-2,9,9,0,0,0,.24-2.17,4.49,4.49,0,0,0,.18-1.21c0-1,.3-2,.3-3.07a11.19,11.19,0,0,0,.24-1.92,7.7,7.7,0,0,0,.25-1.75c.18-1.27.36-2.59.42-3.91a20.37,20.37,0,0,0,.42-4.28c0-.84-.72-1.51-1.27-2s-1.44-1-1.8-1.74a7.35,7.35,0,0,0-1.57-2.23c-.9-.79-1.62-1.69-2.59-2.41-1.38-1.39-2.83-2.89-4.76-3.43-.36-.43-.72-.85-1.08-1.21a9.69,9.69,0,0,0-1.87,0M489,684.89c-1.08.18-2.16-.06-3.31.12-.72.24-1.32.6-2.05.78a1,1,0,0,0-.9,1.09,1.23,1.23,0,0,0,1.14.78c2.29.3,4.64.66,6.93,1,.78.18,1.38-.66,1.38-1.38s0-2-.84-2.47a6.23,6.23,0,0,0-2.35.12m9.58,12.22c-1.21,1-1.27,2.71-1.21,4.16v20.35c0,.73-.18,1.69.55,2.17.48.54,1.32.12,1.92.42a4.11,4.11,0,0,0,1.27,1.45,8.62,8.62,0,0,1-1.75,3.37,3.46,3.46,0,0,0-.66,2.53c0,.84.78,1.69.36,2.53-.54,1.08-.18,2.35-.06,3.49a1.72,1.72,0,0,0-.72,1.93c.36.84.42,1.87,1.32,2.35a5,5,0,0,0,.3,1.86c.3,1-.6,1.69-.6,2.65a3,3,0,0,1-.78.31,1.91,1.91,0,0,0-.36,2.22,5.38,5.38,0,0,1,.12,1.69,1,1,0,0,0,1,1c1.45.18,2.95.24,4.4.49.3-.31.72-.55.66-1,0-1.38-.06-2.77-.06-4.15-.06-2.53.12-5.06-.12-7.59-.06-4.7-.06-9.4-.06-14.09-.06-2.17.12-4.34-.12-6.51,0-3,0-6.08-.06-9.09a7.09,7.09,0,0,0-1.69-2.11c-.06-.3-.18-.66-.24-1l.72-1.09c.49-.06,1.09.13,1.39-.36a1.26,1.26,0,0,0,.3-.9c-.06-1.93,0-3.91-.18-5.84a1,1,0,0,0-1-1.15,40.68,40.68,0,0,0-4.64-.12m-20.3,1.57a4.41,4.41,0,0,0,2.59.78c1.81,0,3.62,0,5.42.12,1.21.18,2.47,0,3.68.12a2.85,2.85,0,0,0,2.83.73,1.5,1.5,0,0,0,1-1c-.18-.6-.3-1.2-.48-1.74a2.48,2.48,0,0,0-1.57-.55H478.9a.89.89,0,0,0-.67,1.57m5.24,4.7a.92.92,0,0,0,.06,1.68,13.45,13.45,0,0,1,2.59,1c.67.42,1,1.14,1.51,1.74s1.44,1.09,1.8,1.93a7.61,7.61,0,0,1,1.21,3,5.28,5.28,0,0,0,.6.36c.06.48-.06,1,.24,1.45a2.76,2.76,0,0,1,.48,2c-.3,1.14.49,2.22,1,3.13.48,0,1.14.12,1.32-.48.42-1.33-.12-2.65-.12-4,0-2.65-.06-5.3-.24-7.89a4.75,4.75,0,0,0-1.93-2.29c-.66-.24-1.38-.36-2-.54-.91-.24-1.93,0-2.71-.54a5.52,5.52,0,0,0-3.8-.66m8.86,33.3a2.66,2.66,0,0,0,.18,1.2c.18.85-.79,1.63-.18,2.47.42.12.9.36,1.2-.06.6-.42,0-1.14.18-1.68s-.24-1.27-.18-1.93h-1.2m-1.45,10c-.42.48-1.14.6-1.26,1.26-.25,1.08-1,2-.67,3.19,1,1,2.41.12,3.56.24a1.17,1.17,0,0,0,1.38-1.32c-.12-1.09.18-2.23-.24-3.25a4.56,4.56,0,0,0-.66-.24,6.34,6.34,0,0,1-2.11.12m-4.82,12.7a1.58,1.58,0,0,0-.42.91,5.67,5.67,0,0,0,1.93,1.14c.66.42,1.26,1,1.93,1.51a15,15,0,0,1,2.58,3c.61.72.49,1.8,1.33,2.28.06.61.18,1.21.3,1.81a5.41,5.41,0,0,0,.6.54h.48c.19-.24.55-.42.61-.72a36.67,36.67,0,0,0-.18-3.67c0-1.39-.24-2.71-.24-4.1-.06-.66.06-1.5-.55-2a6,6,0,0,0-3.25-.48,16.82,16.82,0,0,0-3-.06,12.44,12.44,0,0,0-2.11-.18m13,.42c-1,.79-.42,2-.42,3,0,3.14.3,6.27.3,9.46a45.87,45.87,0,0,1,.18,5,11.17,11.17,0,0,1,.06,2.83c-.24,1.08-.06,2.17-.3,3.25.42,1.75-.36,3.55.24,5.24.36.12.84.42,1.2.12.61-.48,1.27-.84,1.81-1.27a1.25,1.25,0,0,0,.18-1.74,11,11,0,0,1-1.32-1.93,3,3,0,0,1-.18-1.62,4.42,4.42,0,0,1,1.14-3.32c.48-.48.6-1.08,1-1.56s1.09-.48,1.39-1c.48-.54.24-1.26.3-1.92,0-4.52,0-9,.06-13.43a1,1,0,0,0-1.2-.91,34.07,34.07,0,0,0-3.5.06,3.49,3.49,0,0,0-1-.3m11.26,2.59a6.17,6.17,0,0,0,.3,2.77,6.57,6.57,0,0,1-.06,1.87c-.12,1.14-.48,2.17-.54,3.31a16.48,16.48,0,0,0-.18,4.22,3.64,3.64,0,0,0,1.14,1.56,14.86,14.86,0,0,0,2.83,0c.49-.3,1-.6,1.51-.84a22.62,22.62,0,0,1,2.71-.72,2,2,0,0,0,1.32-2c0-1.14.25-2.53-.66-3.37a9.56,9.56,0,0,1-1.74-2.35c-.61-1-1.87-1.33-2.47-2.41a9,9,0,0,1-.91-1.2,3.09,3.09,0,0,1-.12-.73c-.42-.54-.84-1.26-1.56-1.14a1.42,1.42,0,0,0-1.57,1m2.05,21.86h-.78c-.18.24-.49.42-.49.79-.06,1.5,0,3,0,4.51.06.54-.18,1.33.37,1.75a3.84,3.84,0,0,0,2.4.78,2.92,2.92,0,0,0,1.09-1.2,5,5,0,0,0,.06-1.33c.24-.24.42-.54.66-.78.06-.9,0-1.81,0-2.71a1.5,1.5,0,0,0,.42-1.81,9.56,9.56,0,0,0-.78-.78c-.18-.06-.42-.18-.6-.24a2.5,2.5,0,0,0-2.35,1m-13.73,11.2c.06.91.72,1.69.84,2.59a17,17,0,0,1,0,1.75A12.75,12.75,0,0,1,499,802c-.3.9-1.51.72-2.23,1a2,2,0,0,0-.54,1.39,10.39,10.39,0,0,1-.18,3.61,35.06,35.06,0,0,1-1.75,4.1,1.39,1.39,0,0,0,.12,1.44,5.68,5.68,0,0,0,3.44.42,2.08,2.08,0,0,0,1.14-1.56,8.55,8.55,0,0,0,.48-3.44,5.22,5.22,0,0,1,1.09-3.61c.3-.66,1.2-.66,1.62-1.26,1-1,.42-2.41.66-3.62.24-1.44.06-2.89.36-4.33-.3-.67-.42-1.75-1.32-1.81-.66,0-.6-1-1.32-.9-1.27-.24-1.75,1.14-1.87,2.1m17.76,1a1.73,1.73,0,0,1-2.47.78c-.72,0-1.44,0-2.16.06a.91.91,0,0,0-.73,1.09c.06,2.46,0,4.93.06,7.4a8.75,8.75,0,0,1,0,2.17,2.56,2.56,0,0,0,1.63,2.35,8.29,8.29,0,0,0,2.89.78,7.46,7.46,0,0,0-.42,4,7.53,7.53,0,0,1,.42,1.56c.06.48-.48.66-.54,1.09,0-.12-.06-.37-.06-.49a2.4,2.4,0,0,0-2-.48l-.78.79a9.72,9.72,0,0,1-.06,1.32l.72.9a9.75,9.75,0,0,0,1.87-.06c.06-.12.12-.36.18-.48,0,.12.06.42.06.54a4.51,4.51,0,0,1,1.56.49,4.67,4.67,0,0,0,2.23.18,30.2,30.2,0,0,0,1.63-3.08l1.44-2.89a4,4,0,0,0,.18-2,14.1,14.1,0,0,1-1-3.86,11.51,11.51,0,0,1-.66-2.77c0-1-.24-2-.24-3a34.84,34.84,0,0,1-.18-4.33,4.47,4.47,0,0,0,.6-2.47,4.17,4.17,0,0,0-1.21-1.15,3.06,3.06,0,0,0-3,1.63m-26.85,22.64a2.8,2.8,0,0,0-.85,1.21,13,13,0,0,0-.06,1.56c-.24,1.27-1.08,2.23-1.5,3.43-.18.73.54,1.39.36,2.11-.24,2.35-.12,4.76-.24,7.11-.3,3,0,5.9-.36,8.85a15.26,15.26,0,0,0-1.69.06c-1.21.18-2.41,0-3.61.24-1.45.3-2.89-.48-4.34-.06a3.18,3.18,0,0,0-1.63,2.77,4.32,4.32,0,0,0,.31,1.75c.18,2.65.54,5.3.78,8,.36,1.08.72,2.16,1.08,3.31a7.33,7.33,0,0,0,1,2.47c.66,1,1.44,2,2.16,3,.61.84,1.51,1.38,2.11,2.17a12.32,12.32,0,0,0,2.59,2,17.91,17.91,0,0,0,5.12,2.41,15.31,15.31,0,0,0,5.18,1,14,14,0,0,0,5-.42c.78-.37,1.62-.37,2.41-.73,1.62-1.38,3.91-1.74,5.54-3.07.66-.6,1.32-1.2,2-1.87a14.87,14.87,0,0,0,3.92-4.93,15.05,15.05,0,0,0,1-1.87,1.25,1.25,0,0,0-.54-1.51c-.78-.42-1.69,0-2.47-.06-1,.06-2.11,0-2.71.85a13.85,13.85,0,0,0-1.81,1.86c-.66,1-2,.79-3,.79a4,4,0,0,1-2.47-.73c-.72-.66-1.26-1.5-1.92-2.16a15,15,0,0,0-.67-4.1c.49-.84,1-1.63,1.45-2.47a1.65,1.65,0,0,0,0-1.74c-.36-.49-1-.67-1.39-1.15a2.66,2.66,0,0,1,.06-2.59c.37-.72,1.33-.66,1.81-1.2.66-.61.3-1.57.42-2.29.12-2.23-.06-4.46.18-6.69v-7.16a2.73,2.73,0,0,1,.24-1.69l-.42.42c.12,3.07.06,6.21.06,9.28-.06-3.25.12-6.51-.12-9.7l.24.18c.06-2.23,0-4.51.06-6.74a1,1,0,0,0-1-1.21c-1.44.3-2.83,1-4.34.91-.78-.06-1.56.3-2.34.24-1.51.06-3,.48-4.46.42.12-.66.48-1.39,0-2-.24-.42-.78-.3-1.2-.24m19.15,5.12a27.16,27.16,0,0,0-.12,3.25c.24,2,.06,4,.18,6,0,3.92.06,7.83.06,11.69,0,.72.72,1.14,1.32,1.26a7.44,7.44,0,0,1,3,.78,11.63,11.63,0,0,0,3.25,1.87c.91.3,1.69-.54,1.87-1.32a10.67,10.67,0,0,0,.66-2.35V839.6a8.18,8.18,0,0,1,.67-3c.66-1.09.42-2.35.48-3.56a4.61,4.61,0,0,0-.48-2.17c-.25-1,.9-1.44.9-2.34s.66-1.81.12-2.65a2,2,0,0,1-.9-.67c-.55-.72-1.63-.36-2.35-.48a61.35,61.35,0,0,1-6.63-1.2c-.66-.18-1.68-.18-2,.66M382.36,831.1c-.6.13-.72.91-.48,1.39s1.09.18,1.57.54c.78.48,1.32,1.21,2.1,1.69a7.77,7.77,0,0,0,2.35,1.56c1.15.37,2.17.91,3.32,1.33a1.39,1.39,0,0,0,1.8-1.21,10.31,10.31,0,0,0-.24-3.31,6.55,6.55,0,0,0-3-.72c-.9-.36-1.81-.78-2.71-1.08-1.57.06-3.13-.49-4.7-.19m-12,2.11c-.66.42-1.51,1-1.69,1.81a11.3,11.3,0,0,0-.24,3.49c.42,1.57,1.69,2.71,2.35,4.16a15,15,0,0,0,1.2,3.07,8.22,8.22,0,0,0,1.87,2.77,1.21,1.21,0,0,0,1.27-.18c.54-.72.36-1.81,1-2.47.48-.72,1.38-1.15,1.75-2a12.45,12.45,0,0,0,.06-2.59c-.3-1.2-1.21-2.11-1.57-3.31a9.88,9.88,0,0,0-1.38-2.89,4.42,4.42,0,0,0-1.93-1.69,3.88,3.88,0,0,0-2.71-.18m19,11.81c-.48.42-.36,1.14-.36,1.68-.06,1.27.36,2.41.24,3.68a3.29,3.29,0,0,0,.9,2.71h1a7.08,7.08,0,0,0,.91-2.47c.06-1.09,0-2.17,0-3.26a9.15,9.15,0,0,0-.48-2.22,1.57,1.57,0,0,0-2.17-.12m-8,32.7a6.7,6.7,0,0,0-1.09.06,6.52,6.52,0,0,0-.36,3.55c.3,1.87-.36,3.73-.06,5.66.18.84.06,1.75.3,2.59.37,1.2-.06,2.41.06,3.61.31-.24.12-.72.12-1a5.62,5.62,0,0,1,.19-2,9.34,9.34,0,0,0,.06,2.89c-.55.42-.18,1.27-.31,1.87-.12.84.73,1.38.73,2.23h1.2a4.75,4.75,0,0,1,.36-2c.24-1.75-.12-3.55.24-5.3a23.28,23.28,0,0,0,.12-2.89c0-1.08.25-2.17.19-3.25-.07-1.93.24-3.86.18-5.84a1.09,1.09,0,0,0-.73-.73,1.31,1.31,0,0,0-1.2.61m10.24,23.84c-.91.55-2.11.91-2.59,1.87-.3.36-.06.84.12,1.26.48.25,1,.61,1.56.43.91-.18,1.87-.12,2.77-.37a1.87,1.87,0,0,0,1.15-2.4c-.24-.61-.85-.85-1.33-1.15-.66-.3-1.2.12-1.68.36m52,44.21a.87.87,0,0,0-.36,1.26,18.22,18.22,0,0,1,1,3.07,19.69,19.69,0,0,0,1.26,3.13A25.49,25.49,0,0,0,447,956.3c1.08,1.45,2,3.08,3.13,4.46a39.89,39.89,0,0,0,3.85,4.58c1.09,1,2.29,2,3.38,3.13s2.47,1.32,3.55,2.29a2.9,2.9,0,0,0,2.17.72c.3-.18.78-.36.78-.78.12-.67-.42-1.21-.72-1.75-.84-1.45-.72-3.13-.84-4.7a9.09,9.09,0,0,1-.07-3.85c-.12-.84-.18-1.63-.24-2.47-.42-1.57-2.34-1.87-2.89-3.31a13.85,13.85,0,0,0-2-3.07,12.1,12.1,0,0,1-2.11-1.81c-.84-.9-2.23-.66-3.19-1.33a15.63,15.63,0,0,0-2.77-1c-1.33-.06-2.41-.9-3.68-1.2-.6-.24-1.2-.67-1.86-.42m68,8.43c-.43.48-.55,1.2-1.33,1.26-.48.48-1,.84-1.51,1.33-.72.6-.84,1.68-1.56,2.28s-1.21,1.45-1.93,2-1.8.84-2.53,1.63a8.36,8.36,0,0,1-2.53,1.56,16.75,16.75,0,0,0-2.65,1.45,5.73,5.73,0,0,0-.54,1.8c-.3,1-.18,2.11-.54,3.14a1.94,1.94,0,0,0,.54,2.28,4.94,4.94,0,0,0,2.05-.72c1.14-.54,2.11-1.38,3.19-2,1.45-1.5,3.13-2.77,4.52-4.33a37.25,37.25,0,0,0,3.79-4.82c.48-.6.6-1.38,1.09-2a10.86,10.86,0,0,0,1.08-2.4,4.47,4.47,0,0,0,.3-2.17.86.86,0,0,0-1.44-.3Z"/></svg>