<svg id="Layer_1" data-name="Layer 1" xmlns="http://www.w3.org/2000/svg" viewBox="0 0 1000 1000"><defs><style>.cls-1,.cls-2{fill:#fff;}.cls-1{stroke:#fff;stroke-linejoin:round;}.cls-2{opacity:0.86;}</style></defs><path d="M958.52,64.45c-12.32-11.89-28.25-.39-50.14,10-5.85,2.77-11.9,5.79-18,8.89-.24-.39-.85-1.56-1.5-2.81,4.31-4.79-2.29-17.11-2.46-17.06-5.14.67-10.17,2.42-14.38,11.07,3.79,3.19,7.85,8.8,12.92,8l1.62,2.75c-17.63,9-35.3,18.53-49.15,25.38-.16-.18-.88-1.63-1.59-3,4.3-4.79-2.29-17.11-2.47-17.06-5.14.67-10.17,2.42-14.37,11.07,3.78,3.19,7.84,8.8,12.91,8l1.71,2.91c-1.71.82-3.4,1.62-5,2.33,7.09,17.24,4.21,31.88-6.36,44.54-100,90.85-200.08,193.77-298.42,290.12l-.34-.34c-12.13,13.49-31.08,11.3-49.93,9.26l-412.72,206c-43.37,16.9-26.12,48.87,4.55,48.21,280.63-6,263.93-75.26,240.67,236.18-5.44,49.95,32.38,59.6,50.27,10.35,0,0,202.79-420.21,201-422-9.68-9.55,4.72-47.21,7.61-46.34.16,0,0-.22-.28-.6L853.43,190.5c12.51-10.15,26.63-13,46.68-2,2.65-4.26,10.07-15.76,18.65-29.57l3.24,1.94c-.81,5.06,4.8,9.13,8,12.91,8.65-4.21,10.4-9.24,11.07-14.38.05-.17-12.27-6.76-17.06-2.46-1.39-.72-2.84-1.44-3-1.59,4.43-7.16,9-14.64,13.54-22.4l2.37,1.44c-.81,5.07,4.8,9.13,8,12.91,8.65-4.21,10.4-9.23,11.07-14.38.05-.17-12.26-6.76-17-2.46l-2.28-1.15c1.08-1.88,2.19-3.76,3.24-5.62,16.71-29.52,34.62-44.41,19.87-58-.39-.43-.79-.86-1.19-1.24ZM859.8,78.18c-5.14.68-10.17,2.43-14.38,11.08,3.79,3.18,7.85,8.79,12.92,8l1.93,3.24,3.62-2.18c-.14-.14-.9-1.64-1.62-3.06,4.3-4.79-2.29-17.11-2.47-17.06Zm65.78,104.58c0-.18-12.27-6.77-17.06-2.47-1.42-.73-2.92-1.48-3.06-1.62l-2.18,3.62,3.24,1.93c-.81,5.07,4.8,9.13,8,12.91,8.65-4.2,10.4-9.23,11.08-14.37Z"/><path class="cls-1" d="M254.82,609.08l217-134.45,71.29,70L369.25,882.36l-29.7-147.27,70-67.54L347.68,605Z"/><rect class="cls-2" x="249.89" y="360.11" width="515.56" height="225.78"/><path d="M340.63,414.35c7.92-1.62,19.26-2.52,30.06-2.52,16.74,0,27.53,3.06,35.09,9.9,6.12,5.4,9.54,13.68,9.54,23,0,16-10.08,26.63-22.86,31v.54c9.36,3.24,14.94,11.88,17.82,24.48,4,16.92,6.84,28.62,9.36,33.3h-16.2c-2-3.42-4.68-13.86-8.1-29-3.59-16.74-10.07-23-24.29-23.58H356.29V534H340.63Zm15.66,55.25h16c16.74,0,27.36-9.18,27.36-23,0-15.66-11.34-22.5-27.9-22.68-7.56,0-13,.72-15.48,1.44Z"/><path d="M516.48,489.76C516.48,522,494.16,536,473.1,536c-23.57,0-41.75-17.28-41.75-44.82,0-29.16,19.08-46.25,43.19-46.25C499.56,445,516.48,463.13,516.48,489.76Zm-69.11.9c0,19.08,11,33.48,26.45,33.48,15.12,0,26.46-14.22,26.46-33.84,0-14.76-7.38-33.47-26.1-33.47S447.37,474.1,447.37,490.66Z"/><path d="M598.56,530.8c-4.14,2.16-13.32,5-25,5-26.28,0-43.37-17.82-43.37-44.46,0-26.82,18.35-46.25,46.79-46.25,9.36,0,17.64,2.34,22,4.5l-3.6,12.23c-3.78-2.15-9.72-4.13-18.36-4.13-20,0-30.78,14.75-30.78,32.93,0,20.16,13,32.58,30.24,32.58a45,45,0,0,0,19.44-4.32Z"/><path d="M632.76,486.88h.36c2.16-3.06,5.22-6.84,7.74-9.9l25.56-30.05H685.5l-33.66,35.81L690.18,534H670.92l-30.06-41.76-8.1,9V534H617.11V406.25h15.65Z"/></svg>