<svg id="Layer_1" data-name="Layer 1" xmlns="http://www.w3.org/2000/svg" viewBox="0 0 1000 1000"><defs><style>.cls-1{fill:#fff;stroke:#fff;stroke-linejoin:round;}</style></defs><path d="M958.52,64.45c-12.32-11.89-28.25-.39-50.14,10-5.85,2.77-11.9,5.79-18,8.89-.24-.39-.85-1.56-1.5-2.81,4.31-4.79-2.29-17.11-2.46-17.06-5.14.67-10.17,2.42-14.38,11.07,3.79,3.19,7.85,8.8,12.92,8l1.62,2.75c-17.63,9-35.3,18.53-49.15,25.38-.16-.18-.88-1.63-1.59-3,4.3-4.79-2.29-17.11-2.47-17.06-5.14.67-10.17,2.42-14.37,11.07,3.78,3.19,7.84,8.8,12.91,8l1.71,2.91c-1.71.82-3.4,1.62-5,2.33,7.09,17.24,4.21,31.88-6.36,44.54-100,90.85-200.08,193.77-298.42,290.12l-.34-.34c-12.13,13.49-31.08,11.3-49.93,9.26l-412.72,206c-43.37,16.9-26.12,48.87,4.55,48.21,280.63-6,263.93-75.26,240.67,236.18-5.44,49.95,32.38,59.6,50.27,10.35,0,0,202.79-420.21,201-422-9.68-9.55,4.72-47.21,7.61-46.34.16,0,0-.22-.28-.6L853.43,190.5c12.51-10.15,26.63-13,46.68-2,2.65-4.26,10.07-15.76,18.65-29.57l3.24,1.94c-.81,5.06,4.8,9.13,8,12.91,8.65-4.21,10.4-9.24,11.07-14.38.05-.17-12.27-6.76-17.06-2.46-1.39-.72-2.84-1.44-3-1.59,4.43-7.16,9-14.64,13.54-22.4l2.37,1.44c-.81,5.07,4.8,9.13,8,12.91,8.65-4.21,10.4-9.23,11.07-14.38.05-.17-12.26-6.76-17-2.46l-2.28-1.15c1.08-1.88,2.19-3.76,3.24-5.62,16.71-29.52,34.62-44.41,19.87-58-.39-.43-.79-.86-1.19-1.24ZM859.8,78.18c-5.14.68-10.17,2.43-14.38,11.08,3.79,3.18,7.85,8.79,12.92,8l1.93,3.24,3.62-2.18c-.14-.14-.9-1.64-1.62-3.06,4.3-4.79-2.29-17.11-2.47-17.06Zm65.78,104.58c0-.18-12.27-6.77-17.06-2.47-1.42-.73-2.92-1.48-3.06-1.62l-2.18,3.62,3.24,1.93c-.81,5.07,4.8,9.13,8,12.91,8.65-4.2,10.4-9.23,11.08-14.37Z"/><path class="cls-1" d="M254.82,609.08l217-134.45,71.29,70L369.25,882.36l-29.7-147.27,70-67.54L347.68,605Z"/></svg>