<?xml version="1.0" encoding="utf-8"?>
<!-- Generator: Adobe Illustrator 24.2.3, SVG Export Plug-In . SVG Version: 6.00 Build 0)  -->
<svg version="1.1" id="Layer_1" xmlns="http://www.w3.org/2000/svg" xmlns:xlink="http://www.w3.org/1999/xlink" x="0px" y="0px"
	 viewBox="0 0 3642.33 1000" style="enable-background:new 0 0 3642.33 1000;" xml:space="preserve">
<style type="text/css">
	.st0{stroke:#000000;stroke-miterlimit:10;}
	.st1{fill:#FFFFFF;stroke:#000000;stroke-miterlimit:10;}
</style>
<circle class="st0" cx="501.51" cy="500.17" r="494.5"/>
<circle class="st1" cx="501.51" cy="500.17" r="178.49"/>
<circle class="st0" cx="501.51" cy="500.17" r="13.13"/>
<g>
	<path d="M1587.51,827.48c0,15.36-4.73,23.03-14.17,23.03h-112.33c-9.47,0-34.11-34.63-73.92-103.89
		c-33.63-58.53-55.98-100.81-67.08-126.83c-11.08-25.03-17.42-39.02-19.05-41.94c-9.73-16.25-21.09-24.88-34.06-25.86
		c-3.89-0.31-14.75-0.48-32.59-0.48c-40.88,0-61.3,5.05-61.3,15.13c0,29.92,1,74.64,3,134.14s3,104.05,3,133.64
		c0,10.73-4.06,16.09-12.17,16.09c-6.19,0-15.44-0.48-27.78-1.45s-21.59-1.47-27.75-1.47c-5.84,0-14.53,0.5-26.06,1.47
		s-20.22,1.45-26.06,1.45c-8.13,0-12.17-3.73-12.17-11.23c0-35.8,1.66-89.58,5-161.36c3.33-71.77,5-125.55,5-161.36
		c0-37.75-1.67-94.47-5-170.16c-3.34-75.67-5-132.39-5-170.16c0-7.16,4.05-10.73,12.17-10.73c5.84,0,14.77,0.5,26.78,1.47
		c12,0.98,21.09,1.47,27.27,1.47c5.84,0,14.59-0.48,26.28-1.47c11.69-0.97,20.45-1.47,26.3-1.47c7.47,0,11.2,2.94,11.2,8.8
		c0,27.67-0.84,69.34-2.5,125c-1.67,55.67-2.5,97.5-2.5,125.48c0,12.7,0.81,20.67,2.44,23.92c2.59,5.88,9.27,8.8,20,8.8
		c63.09,0,109.27-11.72,138.55-35.16c25.03-20.83,48.78-59.08,71.23-114.75c16.25-43.63,32.52-87.23,48.78-130.86
		c2.28-5.53,7.34-9.27,15.19-11.23c5.22-1.3,22.53-1.95,51.92-1.95c35.92,0,53.89,5.05,53.89,15.14c0,5.88-7.48,32.25-22.42,79.14
		c-17.56,54.72-40.31,102.91-68.27,144.58c-18.53,28.34-43.06,56.83-73.61,85.48c-7.81,6.84-11.7,13.03-11.7,18.56
		c0,5.84,13.17,34.89,39.52,87.13c22.72,45.25,43.34,81.55,61.84,108.89c20.44,25.06,49.02,63.64,85.7,115.72
		C1586.69,821.14,1587.51,824.23,1587.51,827.48z"/>
	<path d="M2017.2,612.54c0,68.03-22.3,126.13-66.88,174.28c-45.56,49.8-102.03,74.69-169.38,74.69
		c-67.69,0-124.31-24.73-169.88-74.2c-44.59-47.84-66.88-105.77-66.88-173.78s22.28-125.95,66.88-173.8
		c45.88-48.81,102.5-73.22,169.88-73.22c67.03,0,123.33,24.41,168.89,73.22C1994.75,487.26,2017.2,544.85,2017.2,612.54z
		 M1914.2,613.53c0-39.72-12.2-73.58-36.61-101.58c-25.39-29.63-57.61-44.44-96.64-44.44c-39.06,0-71.44,14.66-97.14,43.95
		c-24.41,28.33-36.61,62.34-36.61,102.06c0,39.06,12.36,72.92,37.09,101.56c26.03,30.28,58.25,45.42,96.66,45.42
		c38.72,0,70.92-15.14,96.64-45.42C1902,686.45,1914.2,652.59,1914.2,613.53z"/>
	<path d="M2298.43,391.79c0,35.89-2.45,68.52-7.34,97.88c-0.98,7.5-4.25,11.23-9.8,11.23c-6.88,0-17.23-0.72-31.11-2.19
		s-24.41-2.2-31.59-2.2c-41.16,0-67.44,11.56-78.88,34.67c-6.86,14-10.28,43.13-10.28,87.39v53.72c0,18.23,0.66,45.91,2,83.02
		c1.33,37.11,2,64.78,2,83c0,8.78-3.72,13.17-11.16,13.17c-10.02,0-25.2-0.17-45.56-0.48c-20.36-0.33-35.55-0.48-45.56-0.48
		c-7.44,0-11.16-4.06-11.16-12.2c0-26.38,0.41-66.08,1.22-119.14s1.22-92.94,1.22-119.64c0-80.41-7.36-145.02-22.05-193.86
		c-0.64-2.59-0.95-4.55-0.95-5.86c0-3.91,2.09-6.67,6.3-8.3c11.92-1.33,28.69-3.33,50.31-6c34.86-6.66,50.98-10,48.39-10
		c5.19,0,8.61,9.69,10.23,29.06s4.55,29.06,8.77,29.06c0.66,0,1.47-0.33,2.45-0.98c13.39-8.52,26.78-17.03,40.19-25.56
		c14.7-8.84,29.73-15.41,45.11-19.67c12.73-3.94,29.08-5.91,49.02-5.91C2285.68,381.51,2298.43,384.95,2298.43,391.79z"/>
	<path d="M2730.44,612.54c0,68.03-22.3,126.13-66.88,174.28c-45.56,49.8-102.03,74.69-169.38,74.69
		c-67.69,0-124.31-24.73-169.88-74.2c-44.59-47.84-66.88-105.77-66.88-173.78s22.28-125.95,66.88-173.8
		c45.88-48.81,102.5-73.22,169.88-73.22c67.03,0,123.33,24.41,168.89,73.22C2707.98,487.26,2730.44,544.85,2730.44,612.54z
		 M2627.44,613.53c0-39.72-12.2-73.58-36.61-101.58c-25.39-29.63-57.61-44.44-96.64-44.44c-39.06,0-71.44,14.66-97.14,43.95
		c-24.41,28.33-36.61,62.34-36.61,102.06c0,39.06,12.36,72.92,37.09,101.56c26.03,30.28,58.25,45.42,96.66,45.42
		c38.72,0,70.92-15.14,96.64-45.42C2615.23,686.45,2627.44,652.59,2627.44,613.53z"/>
	<path d="M3165.62,840.75c0,7.16-3.27,10.73-9.78,10.73c-10.75,0-26.81-0.17-48.16-0.48c-21.34-0.33-37.41-0.48-48.16-0.48
		c-5.88,0-8.8-4.72-8.8-14.17c0-15.95,0.48-40.22,1.47-72.78c0.97-32.56,1.47-57,1.47-73.28c0-13.03-0.17-32.48-0.48-58.38
		c-0.33-25.89-0.48-45.34-0.48-58.38c0-37.13-5.38-63.34-16.11-78.66c-13.02-18.23-37.09-27.36-72.22-27.36
		c-16.28,0-38.89,9.14-67.83,27.42c-30.59,19.27-45.88,36.39-45.88,51.36v292.98c0,8.14-3.11,12.2-9.3,12.2
		c-10.44,0-26.08-0.17-46.94-0.48c-20.88-0.33-36.52-0.48-46.94-0.48c-6.84,0-10.27-3.73-10.27-11.23
		c0-25.72,0.41-64.31,1.22-115.77s1.22-90.2,1.22-116.27c0-69.36-7.19-133.34-21.56-191.97c-0.97-2.92-1.44-5.03-1.44-6.34
		c0-3.25,2.11-5.53,6.34-6.84c2.28-0.31,20.89-3.33,55.86-9.03c34.97-5.69,53.27-8.55,54.89-8.55c1.95,0,3.25,2.61,3.91,7.83
		c1.63,20.23,5.36,40.63,11.22,61.17c16.92-13.33,39.2-29.92,66.86-49.77c34.16-20.81,67.19-31.23,99.08-31.23
		c61.16,0,102.97,17.75,125.42,53.22c16.59,26.05,24.89,68.2,24.89,126.45c0,10.09-0.25,25.56-0.73,46.39
		c-0.5,20.84-0.73,36.47-0.73,46.88c0,21.81,0.31,54.36,0.97,97.64C3165.29,786.39,3165.62,818.93,3165.62,840.75z"/>
	<path d="M3624.62,395.21c0,39.09-0.34,97.8-1,176.11c-0.67,78.33-1,137.03-1,176.09c0,77.52-16.63,134.66-49.84,171.47
		c-34.84,39.08-90.55,58.63-167.09,58.63c-73.94,0-133.72-13.95-179.31-41.83c-7.17-4.55-10.75-8.44-10.75-11.67
		c0,3.58,4.89-20.48,14.67-72.2c0.97-5.53,3.25-8.3,6.84-8.3c1.63,0,3.75,0.81,6.36,2.42c48.91,27.72,97.97,41.58,147.2,41.58
		c32.27,0,59-7.16,80.2-21.45c24.44-16.25,36.67-39.83,36.67-70.7c0-6.83-0.66-22.11-1.95-45.84c-36.16,44-82.09,66-137.78,66
		c-60.25,0-109.77-21.66-148.52-64.97c-37.14-41.69-55.7-92.97-55.7-153.88c0-61.88,17.94-114.47,53.81-157.8
		c38.16-46.23,87.75-69.36,148.75-69.36c53.81,0,96.53,20.59,128.19,61.78c5.22,6.81,8.97,10.22,11.25,10.22
		c2.59,0,3.89-2.92,3.89-8.78c0-4.22-0.33-10.97-0.98-20.23c-0.66-9.25-0.97-16.16-0.97-20.72c0-19.5,1.94-29.27,5.83-29.27
		c3.23,0,20.72,3.02,52.45,9.03s49.06,9.67,51.98,10.97C3622.35,384.14,3624.62,388.37,3624.62,395.21z M3507.62,596.76
		c0-36.45-9.94-67.38-29.8-92.75c-21.81-27.66-50.47-41.5-85.95-41.5c-35.16,0-63.64,14-85.45,41.98
		c-19.88,25.39-29.8,56.14-29.8,92.27c0,35.47,10.09,66.06,30.28,91.77c21.81,28,50.13,41.98,84.97,41.98
		c34.5,0,62.83-13.98,84.98-41.98C3497.35,662.82,3507.62,632.23,3507.62,596.76z"/>
</g>
<rect x="2677.89" y="1219.22" style="fill:none;" width="17.78" height="0"/>
</svg>
